<?xml version="1.0" encoding="iso-8859-1"?>
<!-- Generator: Adobe Illustrator 19.1.0, SVG Export Plug-In . SVG Version: 6.00 Build 0)  -->
<svg version="1.1" id="Capa_1" xmlns="http://www.w3.org/2000/svg" xmlns:xlink="http://www.w3.org/1999/xlink" x="0px" y="0px"
	 viewBox="0 0 447.595 447.595" style="enable-background:new 0 0 447.595 447.595;" xml:space="preserve">
<g id="XMLID_2_">
	<g>
		<path style="fill:#8E5D3C;" d="M57.69,418.88c2.85,2.85,2.85,7.49,0,10.34l-2.98,2.98c-1.38,1.38-3.22,2.14-5.17,2.14
			c-1.96,0-3.79-0.76-5.18-2.14L15.4,403.23c-1.38-1.38-2.15-3.21-2.15-5.17c0-1.95,0.77-3.79,2.15-5.17l2.98-2.98
			c1.38-1.38,3.21-2.14,5.17-2.14c1.95,0,3.79,0.76,5.17,2.14L57.69,418.88z"/>
		<polygon style="fill:#C4804D;" points="162.81,315.96 110.18,363.89 65.63,408.44 39.16,381.97 83.6,337.53 131.63,284.79 		"/>
		<path style="fill:#8E5D3C;" d="M429.41,37.64c6.59,6.59,6.59,17.32,0,23.92L299.28,191.68L172.43,307.2l-32.03-32.03
			l115.52-126.85L386.04,18.19c6.6-6.59,17.32-6.59,23.92,0L429.41,37.64z"/>
		<path style="fill:#333333;" d="M438.6,28.45c11.66,11.66,11.66,30.64,0,42.3L308.26,201.09l-0.11,0.1L119.05,373.4l-46.63,46.63
			c1.29,6.45-0.56,13.4-5.54,18.38l-2.98,2.98c-3.84,3.84-8.94,5.95-14.36,5.95c-5.43,0-10.53-2.11-14.37-5.95L6.21,412.43
			c-3.84-3.84-5.96-8.94-5.96-14.37c0-5.42,2.12-10.53,5.96-14.36l2.97-2.98c3.84-3.84,8.94-5.95,14.37-5.95
			c1.37,0,2.72,0.13,4.03,0.4l46.61-46.62l172.32-189.21L376.85,9c11.66-11.66,30.64-11.66,42.3,0L438.6,28.45z M429.41,61.56
			c6.59-6.6,6.59-17.33,0-23.92l-19.45-19.45c-6.6-6.59-17.32-6.59-23.92,0L255.92,148.32L140.4,275.17l32.03,32.03l126.85-115.52
			L429.41,61.56z M110.18,363.89l52.63-47.93l-31.18-31.17L83.6,337.53l-44.44,44.44l26.47,26.47L110.18,363.89z M57.69,429.22
			c2.85-2.85,2.85-7.49,0-10.34l-28.97-28.97c-1.38-1.38-3.22-2.14-5.17-2.14c-1.96,0-3.79,0.76-5.17,2.14l-2.98,2.98
			c-1.38,1.38-2.15,3.22-2.15,5.17c0,1.96,0.77,3.79,2.15,5.17l28.96,28.97c1.39,1.38,3.22,2.14,5.18,2.14
			c1.95,0,3.79-0.76,5.17-2.14L57.69,429.22z"/>
	</g>
	<g>
	</g>
</g>
<g>
</g>
<g>
</g>
<g>
</g>
<g>
</g>
<g>
</g>
<g>
</g>
<g>
</g>
<g>
</g>
<g>
</g>
<g>
</g>
<g>
</g>
<g>
</g>
<g>
</g>
<g>
</g>
<g>
</g>
</svg>
