<?xml version="1.0" encoding="iso-8859-1"?>
<!-- Generator: Adobe Illustrator 19.0.0, SVG Export Plug-In . SVG Version: 6.00 Build 0)  -->
<svg version="1.1" id="Layer_1" xmlns="http://www.w3.org/2000/svg" xmlns:xlink="http://www.w3.org/1999/xlink" x="0px" y="0px"
	 viewBox="0 0 512 512" style="enable-background:new 0 0 512 512;" xml:space="preserve">
<rect x="172.744" y="396.453" style="fill:#8C4F39;" width="166.512" height="105.348"/>
<rect x="172.744" y="234.48" style="fill:#BDCED4;" width="166.512" height="161.984"/>
<path style="fill:#8C4F39;" d="M302.052,120.82c-7.549-13.869-11.504-29.408-11.504-45.199V45.314h-69.097v30.308
	c0,15.79-3.955,31.329-11.504,45.199l-19.039,34.978c-11.92,21.899-18.165,46.435-18.165,71.367v7.314h166.51v-7.314
	c0-24.933-6.245-49.468-18.165-71.367L302.052,120.82z"/>
<rect x="221.455" y="10.199" style="fill:#BDCED4;" width="69.097" height="35.115"/>
<path d="M162.546,501.801c0,5.633,4.566,10.199,10.199,10.199h166.51c5.633,0,10.199-4.566,10.199-10.199V227.165
	c0-26.556-6.71-52.92-19.405-76.243l-19.039-34.977c-6.714-12.335-10.263-26.279-10.263-40.323V45.314V10.199
	C300.747,4.566,296.181,0,290.548,0h-69.096c-5.633,0-10.199,4.566-10.199,10.199v35.115v30.307
	c0,14.044-3.548,27.988-10.263,40.323l-19.039,34.977c-12.695,23.324-19.405,49.687-19.405,76.243V501.801z M182.944,244.677
	h146.112v141.581H182.944V244.677z M231.651,20.398h48.697v14.716h-48.697L231.651,20.398L231.651,20.398z M199.868,160.673
	l19.039-34.977c8.338-15.319,12.745-32.634,12.745-50.075V55.513h48.697v20.108c0,17.441,4.407,34.756,12.745,50.075l19.039,34.977
	c10.611,19.495,16.428,41.427,16.893,63.605H182.975C183.44,202.1,189.256,180.168,199.868,160.673z M329.056,491.602H182.944
	v-84.945h146.112V491.602z"/>
<path d="M206.727,301.304c-5.633,0-10.199,4.566-10.199,10.199v54.371c0,5.633,4.566,10.199,10.199,10.199
	c5.633,0,10.199-4.566,10.199-10.199v-54.371C216.926,305.87,212.36,301.304,206.727,301.304z"/>
<path d="M206.727,260.526c-5.633,0-10.199,4.566-10.199,10.199v5.664c0,5.633,4.566,10.199,10.199,10.199
	c5.633,0,10.199-4.566,10.199-10.199v-5.664C216.926,265.093,212.36,260.526,206.727,260.526z"/>
<g>
</g>
<g>
</g>
<g>
</g>
<g>
</g>
<g>
</g>
<g>
</g>
<g>
</g>
<g>
</g>
<g>
</g>
<g>
</g>
<g>
</g>
<g>
</g>
<g>
</g>
<g>
</g>
<g>
</g>
</svg>
