<?xml version="1.0" encoding="iso-8859-1"?>
<!-- Generator: Adobe Illustrator 19.1.0, SVG Export Plug-In . SVG Version: 6.00 Build 0)  -->
<svg version="1.1" id="Capa_1" xmlns="http://www.w3.org/2000/svg" xmlns:xlink="http://www.w3.org/1999/xlink" x="0px" y="0px"
	 viewBox="0 0 428.092 428.092" style="enable-background:new 0 0 428.092 428.092;" xml:space="preserve">
<g>
	<path style="fill:#BBD3DF;" d="M138.385,398.494c-0.062,0-0.12-0.015-0.181-0.017l1.477,19.614h50.761l1.477-19.615
		c-0.062,0.002-0.12,0.018-0.182,0.018H138.385z"/>
	<path style="fill:#8EB6CA;" d="M181.99,40.062c0,2.762-2.239,5-5,5s-5-2.238-5-5v-4.357h-6.111v15.418
		c0,3.957-1.515,7.538-4.382,10.354c-6.369,6.256-18.823,7.947-29.431,8.114c-1.125,18.742-2.052,45.979-2.052,84.845
		c0,16.055,0.344,33.094,0.92,50.387h43.388c1.444,0,2.818,0.625,3.768,1.713c0.949,1.089,1.382,2.535,1.185,3.966l-2.527,18.442
		c-0.339,2.477-2.455,4.321-4.954,4.321h-39.727c3.211,69.869,9.225,137.44,10.87,155.23h44.046
		c0.638-12.344,2.514-47.341,5.37-89.665h-31.475c-2.761,0-5-2.238-5-5v-18.442c0-2.762,2.239-5,5-5h33.472
		c3.79-51.899,8.821-109.17,14.695-147.969v-0.423h-26.873c-2.761,0-5-2.238-5-5c0-2.762,2.239-5,5-5h26.873v-7.563h-49.156
		c-2.761,0-5-2.238-5-5c0-2.762,2.239-5,5-5h49.156V35.704H181.99V40.062z"/>
	<path style="fill:#BBD3DF;" d="M165.879,288.829h27.16c0.193-2.789,0.392-5.606,0.593-8.442h-27.752V288.829z"/>
	<path style="fill:#BBD3DF;" d="M168.591,214.821h-37.299c0.107,2.812,0.22,5.627,0.338,8.442h35.805L168.591,214.821z"/>
	<rect x="136.167" y="10" style="fill:#8EB6CA;" width="35.823" height="15.704"/>
	<rect x="181.99" y="10" style="fill:#8EB6CA;" width="27.056" height="15.704"/>
	<path style="fill:#BBD3DF;" d="M155.879,51.122V35.704h-20.574c-0.636,3.932-1.618,11.344-2.564,23.866
		c10.62-0.265,18.603-2.14,21.748-5.229C155.45,53.397,155.879,52.405,155.879,51.122z"/>
	<path style="fill:#BBD3DF;" d="M236.355,398.494c-0.062,0-0.121-0.016-0.184-0.018l1.479,19.615h50.76l1.477-19.615
		c-0.061,0.003-0.119,0.018-0.182,0.018H236.355z"/>
	<path style="fill:#8EB6CA;" d="M266.593,61.476c-2.865-2.816-4.381-6.396-4.381-10.354V35.704h-6.109v4.357c0,2.762-2.238,5-5,5
		s-5-2.238-5-5v-4.357h-6.586v37.064c0,9.047-1.812,16.305-5.389,21.663h34.076c2.762,0,5,2.238,5,5c0,2.762-2.238,5-5,5h-49.159
		v7.563h26.875c2.762,0,5,2.238,5,5c0,2.762-2.238,5-5,5h-26.875v0.429c12.042,79.548,20.545,236.744,22.061,266.07h44.045
		c1.424-15.392,6.117-68.045,9.438-127.207h-34.184c-2.5,0-4.615-1.845-4.953-4.321l-2.527-18.442
		c-0.197-1.431,0.236-2.877,1.186-3.966c0.949-1.088,2.322-1.713,3.768-1.713h38.164c1.223-26.699,2.035-53.719,2.035-78.41
		c0-38.867-0.928-66.104-2.053-84.844C285.417,69.423,272.962,67.732,266.593,61.476z"/>
	<path style="fill:#8EB6CA;" d="M229.517,72.769V35.704h-10.471v58.205c1.615-0.468,3.444-1.338,5.071-2.951
		C227.65,87.456,229.517,81.166,229.517,72.769z"/>
	<path style="fill:#BBD3DF;" d="M264.767,251.287h30.365c0.148-2.805,0.293-5.619,0.434-8.442h-31.955L264.767,251.287z"/>
	<path style="fill:#BBD3DF;" d="M272.212,51.122c0,1.282,0.428,2.275,1.389,3.22c3.147,3.09,11.119,4.971,21.75,5.231
		c-0.947-12.525-1.928-19.938-2.564-23.869h-20.574V51.122z"/>
	<rect x="256.103" y="10" style="fill:#8EB6CA;" width="35.822" height="15.704"/>
	<path style="fill:#8EB6CA;" d="M246.103,10h-27.057v15.704h27.057V10z M231.796,21.386c-0.93,0.93-2.221,1.46-3.531,1.46
		c-1.318,0-2.609-0.53-3.539-1.46c-0.93-0.93-1.461-2.22-1.461-3.53c0-1.319,0.531-2.609,1.461-3.54
		c0.93-0.93,2.221-1.46,3.539-1.46c1.31,0,2.601,0.53,3.531,1.46c0.93,0.931,1.469,2.221,1.469,3.54
		C233.265,19.166,232.726,20.456,231.796,21.386z"/>
	<path style="fill:#3F352F;" d="M228.265,12.856c-1.318,0-2.609,0.53-3.539,1.46c-0.93,0.931-1.461,2.221-1.461,3.54
		c0,1.311,0.531,2.601,1.461,3.53c0.93,0.93,2.221,1.46,3.539,1.46c1.31,0,2.601-0.53,3.531-1.46c0.93-0.93,1.469-2.22,1.469-3.53
		c0-1.319-0.539-2.609-1.469-3.54C230.866,13.386,229.575,12.856,228.265,12.856z"/>
	<path style="fill:#3F352F;" d="M301.925,30.144V5c0-2.762-2.238-5-5-5H131.167c-2.761,0-5,2.238-5,5v25.144
		c-1.052,4.68-6.152,32.141-6.152,124.291c0,88.825,10.434,207.45,12.884,234.073c-0.153-0.002-0.303-0.012-0.459,0
		c-2.753,0.208-4.818,2.608-4.61,5.361l2.229,29.598c0.196,2.608,2.37,4.625,4.986,4.625h60.036c2.616,0,4.79-2.017,4.986-4.625
		l2.229-29.598c0.208-2.753-1.857-5.153-4.61-5.361c-0.234-0.016-0.46-0.016-0.688,0c1.349-26.048,7.749-143.981,17.049-226.712
		c9.3,82.725,15.7,200.656,17.05,226.712c-0.227-0.015-0.453-0.018-0.688,0c-2.754,0.208-4.818,2.608-4.609,5.361l2.229,29.598
		c0.195,2.608,2.369,4.625,4.984,4.625h60.037c2.615,0,4.789-2.017,4.986-4.625l2.228-29.598c0.207-2.753-1.857-5.153-4.611-5.361
		c-0.156-0.011-0.307-0.004-0.459,0c2.449-26.619,12.885-145.245,12.885-234.073C308.077,62.284,302.978,34.823,301.925,30.144z
		 M136.167,10h35.823v15.704h-35.823V10z M135.305,35.704h20.574v15.418c0,1.283-0.429,2.275-1.39,3.22
		c-3.145,3.089-11.127,4.964-21.748,5.229C133.687,47.048,134.669,39.636,135.305,35.704z M131.292,214.821h37.299l-1.157,8.442
		H131.63C131.511,220.448,131.399,217.634,131.292,214.821z M190.442,418.092h-50.761l-1.477-19.614
		c0.062,0.002,0.119,0.017,0.181,0.017h53.352c0.062,0,0.121-0.016,0.182-0.018L190.442,418.092z M193.038,288.829h-27.16v-8.442
		h27.752C193.43,283.223,193.232,286.04,193.038,288.829z M209.046,94.432h-49.156c-2.761,0-5,2.238-5,5c0,2.762,2.239,5,5,5h49.156
		v7.563h-26.873c-2.761,0-5,2.238-5,5c0,2.762,2.239,5,5,5h26.873v0.423c-5.874,38.799-10.905,96.069-14.695,147.969h-33.472
		c-2.761,0-5,2.238-5,5v18.442c0,2.762,2.239,5,5,5h31.475c-2.856,42.324-4.732,77.321-5.37,89.665h-44.046
		c-1.645-17.79-7.659-85.361-10.87-155.23h39.727c2.499,0,4.614-1.845,4.954-4.321l2.527-18.442
		c0.196-1.431-0.236-2.877-1.185-3.966c-0.95-1.088-2.324-1.713-3.768-1.713h-43.388c-0.576-17.293-0.92-34.332-0.92-50.387
		c0-38.866,0.927-66.103,2.052-84.845c10.607-0.167,23.062-1.858,29.431-8.114c2.867-2.815,4.382-6.396,4.382-10.354V35.704h6.111
		v4.357c0,2.762,2.239,5,5,5s5-2.238,5-5v-4.357h27.056V94.432z M209.046,25.704H181.99V10h27.056V25.704z M295.351,59.573
		c-10.631-0.261-18.603-2.142-21.75-5.231c-0.961-0.944-1.389-1.938-1.389-3.22V35.704h20.574
		C293.423,39.636,294.404,47.048,295.351,59.573z M256.103,10h35.822v15.704h-35.822V10z M219.046,10h27.057v15.704h-27.057V10z
		 M219.046,35.704h10.471v37.064c0,8.397-1.867,14.688-5.4,18.189c-1.627,1.613-3.456,2.483-5.071,2.951V35.704z M288.409,418.092
		h-50.76l-1.479-19.615c0.062,0.002,0.121,0.018,0.184,0.018h53.35c0.062,0,0.121-0.015,0.182-0.018L288.409,418.092z
		 M295.132,251.287h-30.365l-1.156-8.442h31.955C295.425,245.668,295.281,248.482,295.132,251.287z M296.042,232.845h-38.164
		c-1.445,0-2.818,0.625-3.768,1.713c-0.949,1.089-1.383,2.535-1.186,3.966l2.527,18.442c0.338,2.477,2.453,4.321,4.953,4.321h34.184
		c-3.32,59.162-8.014,111.815-9.438,127.207h-44.045c-1.516-29.326-10.02-186.522-22.061-266.07v-0.429h26.875c2.762,0,5-2.238,5-5
		c0-2.762-2.238-5-5-5h-26.875v-7.563h49.159c2.762,0,5-2.238,5-5c0-2.762-2.238-5-5-5h-34.076
		c3.576-5.358,5.389-12.616,5.389-21.663V35.704h6.586v4.357c0,2.762,2.238,5,5,5s5-2.238,5-5v-4.357h6.109v15.418
		c0,3.957,1.516,7.537,4.381,10.354c6.369,6.257,18.824,7.947,29.432,8.115c1.125,18.74,2.053,45.977,2.053,84.844
		C298.077,179.126,297.265,206.145,296.042,232.845z"/>
</g>
<g>
</g>
<g>
</g>
<g>
</g>
<g>
</g>
<g>
</g>
<g>
</g>
<g>
</g>
<g>
</g>
<g>
</g>
<g>
</g>
<g>
</g>
<g>
</g>
<g>
</g>
<g>
</g>
<g>
</g>
</svg>
