<?xml version="1.0" encoding="iso-8859-1"?>
<!-- Generator: Adobe Illustrator 19.0.0, SVG Export Plug-In . SVG Version: 6.00 Build 0)  -->
<svg xmlns="http://www.w3.org/2000/svg" xmlns:xlink="http://www.w3.org/1999/xlink" version="1.1" id="Layer_1" x="0px" y="0px" viewBox="0 0 486.97 486.97" style="enable-background:new 0 0 486.97 486.97;" xml:space="preserve" width="512" height="512">
<g>
	<path style="fill:#836F5A;" d="M221.386,60.183v250.612h-27.869c-78.874,0-142.814,58.94-142.814,131.646h188.162h10.157h172.841   c9.613,0,17.479-7.865,17.479-17.479V60.183c0-9.614-7.866-17.479-17.479-17.479H293.13L221.386,60.183z"/>
	<path style="opacity:0.42;fill:#564A3D;" d="M421.863,42.704h-18.826v345.953c0,9.614-7.865,17.479-17.479,17.479H212.717H202.56   H56.206c-3.582,11.532-5.503,23.711-5.503,36.305h188.162h10.157h172.841c9.613,0,17.479-7.865,17.479-17.479V60.183   C439.342,50.57,431.476,42.704,421.863,42.704z"/>
	<g>
		<path style="fill:#564A3D;" d="M439.12,81.491V60.183c0-9.614-7.866-17.479-17.479-17.479H292.908l-71.744,17.479v21.13    C279.078,81.226,396.878,81.416,439.12,81.491z"/>
	</g>
	<path style="fill:#C71C4B;" d="M293.13,310.526h-71.966V0h31.989c22.079,0,39.978,17.899,39.978,39.978V310.526z"/>
	<path style="opacity:0.46;fill:#A5173F;" d="M253.152,0h-24.088c22.079,0,39.978,17.899,39.978,39.978v270.548h24.088V39.978   C293.13,17.899,275.232,0,253.152,0z"/>
	<polygon style="fill:#564A3D;" points="30.01,442.441 30.01,486.097 97.957,486.097 108.03,474.74 117.744,486.097    173.504,486.097 183.579,473.301 194.37,486.097 262.365,486.097 262.365,470.423 310.573,470.423 310.573,486.097 456.96,486.097    456.96,442.441  "/>
	<g>
		<polygon style="fill:#564A3D;" points="183.579,459.409 173.504,472.204 117.744,472.204 108.03,460.848 97.957,472.204     30.01,472.204 30.01,486.97 97.957,486.97 108.03,475.614 117.744,486.97 173.504,486.97 183.579,474.175 194.37,486.97     262.365,486.97 262.365,472.204 194.37,472.204   "/>
		<rect x="310.573" y="472.204" style="fill:#564A3D;" width="146.387" height="14.766"/>
		<rect x="262.365" y="456.531" style="fill:#564A3D;" width="48.208" height="14.766"/>
	</g>
	<circle style="fill:#3F8E50;" cx="367.774" cy="336.954" r="42.271"/>
	<circle style="fill:#71CE93;" cx="367.774" cy="336.954" r="16.189"/>
	<g>
		<path style="fill:#A5173F;" d="M293.13,104.814h-97.241c-4.143,0-7.5-3.357-7.5-7.5s3.357-7.5,7.5-7.5h97.241    c4.143,0,7.5,3.357,7.5,7.5S297.273,104.814,293.13,104.814z"/>
	</g>
	<g>
		<path style="fill:#A5173F;" d="M293.13,159.258h-97.241c-4.143,0-7.5-3.357-7.5-7.5s3.357-7.5,7.5-7.5h97.241    c4.143,0,7.5,3.357,7.5,7.5S297.273,159.258,293.13,159.258z"/>
	</g>
	<g>
		<path style="fill:#A5173F;" d="M293.13,213.701h-97.241c-4.143,0-7.5-3.357-7.5-7.5s3.357-7.5,7.5-7.5h97.241    c4.143,0,7.5,3.357,7.5,7.5S297.273,213.701,293.13,213.701z"/>
	</g>
	<g>
		<path style="fill:#A5173F;" d="M293.13,268.145h-97.241c-4.143,0-7.5-3.357-7.5-7.5s3.357-7.5,7.5-7.5h97.241    c4.143,0,7.5,3.357,7.5,7.5S297.273,268.145,293.13,268.145z"/>
	</g>
</g>















</svg>
