<?xml version="1.0" encoding="iso-8859-1"?>
<!-- Generator: Adobe Illustrator 18.0.0, SVG Export Plug-In . SVG Version: 6.00 Build 0)  -->
<!DOCTYPE svg PUBLIC "-//W3C//DTD SVG 1.1//EN" "http://www.w3.org/Graphics/SVG/1.1/DTD/svg11.dtd">
<svg version="1.1" id="Capa_1" xmlns="http://www.w3.org/2000/svg" xmlns:xlink="http://www.w3.org/1999/xlink" x="0px" y="0px"
	 viewBox="0 0 50.357 50.357" style="enable-background:new 0 0 50.357 50.357;" xml:space="preserve">
<g>
	<g>
		<rect x="0" y="11.69" style="fill:#91ADB8;" width="50.357" height="26.976"/>
		<rect x="7.644" y="15.784" style="fill:#219D92;" width="35.07" height="18.787"/>
		<path style="fill:#C0D2D8;" d="M47.884,6.744H2.473C1.107,6.744,0,7.851,0,9.217l0,0c0,1.365,1.107,2.473,2.473,2.473h45.411
			c1.366,0,2.473-1.107,2.473-2.473l0,0C50.357,7.851,49.25,6.744,47.884,6.744z"/>
		<path style="fill:#C0D2D8;" d="M47.884,38.666H2.473C1.107,38.666,0,39.774,0,41.14l0,0c0,1.365,1.107,2.473,2.473,2.473h45.411
			c1.366,0,2.473-1.107,2.473-2.473l0,0C50.357,39.774,49.25,38.666,47.884,38.666z"/>
		<g>
			<g>
				<path style="fill:#A1CEC8;" d="M17.725,25.389c2.248,1.762,11.467,7.93,19.19-0.211l0,0c-7.722-8.14-16.941-1.972-19.19-0.21
					l-0.515-0.002c0,0,0.09,0.079,0.252,0.212c-0.162,0.133-0.252,0.213-0.252,0.213L17.725,25.389z"/>
				<g>
					<path style="fill:#A1CEC8;" d="M19.714,25.123c0,0-1.158-5.499-5.789-4.052c0,0,1.324,2.844,2.234,3.648
						C17.925,26.278,19.714,25.123,19.714,25.123z"/>
					<path style="fill:#A1CEC8;" d="M13.926,29.115c0,0,1.158-5.499,5.789-4.052c0,0-1.324,2.844-2.234,3.647
						C15.715,30.271,13.926,29.115,13.926,29.115z"/>
				</g>
			</g>
		</g>
	</g>
	<g style="opacity:0.5;">
		<g>
			<path style="fill:#C0D2D8;" d="M50.357,9.217L50.357,9.217c0-1.366-1.107-2.473-2.473-2.473H25.179v36.868h22.706
				c1.366,0,2.473-1.107,2.473-2.473l0,0c0-1.366-1.107-2.474-2.473-2.474h2.473V11.69h-2.473
				C49.25,11.69,50.357,10.582,50.357,9.217z"/>
		</g>
	</g>
</g>
<g>
</g>
<g>
</g>
<g>
</g>
<g>
</g>
<g>
</g>
<g>
</g>
<g>
</g>
<g>
</g>
<g>
</g>
<g>
</g>
<g>
</g>
<g>
</g>
<g>
</g>
<g>
</g>
<g>
</g>
</svg>
