<?xml version="1.0" encoding="iso-8859-1"?>
<!-- Generator: Adobe Illustrator 18.0.0, SVG Export Plug-In . SVG Version: 6.00 Build 0)  -->
<!DOCTYPE svg PUBLIC "-//W3C//DTD SVG 1.1//EN" "http://www.w3.org/Graphics/SVG/1.1/DTD/svg11.dtd">
<svg version="1.1" id="Capa_1" xmlns="http://www.w3.org/2000/svg" xmlns:xlink="http://www.w3.org/1999/xlink" x="0px" y="0px"
	 viewBox="0 0 294.964 294.964" style="enable-background:new 0 0 294.964 294.964;" xml:space="preserve">
<path d="M266.576,193.82c-1.699,0-3.076-1.377-3.076-3.076c0-13.029,10.562-23.591,23.591-23.591h0.038
	c1.175,0,2.281-0.552,2.987-1.491c0.706-0.939,0.93-2.155,0.604-3.284c-11.514-39.915-45.327-70.375-87.081-77.016
	c-2.552-7.025-9.265-12.051-17.169-12.051c-7.91,0-14.63,5.026-17.184,12.052c-51.757,8.234-91.319,53.064-91.319,107.139v4.152
	H12.5c-6.903,0-12.5,5.597-12.5,12.5c0,6.903,5.597,12.5,12.5,12.5h132.664c0.007,0,0.013-0.001,0.019-0.001l146.014-0.002
	c2.08,0,3.767-1.687,3.767-3.767v-20.297c0-2.08-1.687-3.767-3.767-3.767H266.576z"/>
<g>
</g>
<g>
</g>
<g>
</g>
<g>
</g>
<g>
</g>
<g>
</g>
<g>
</g>
<g>
</g>
<g>
</g>
<g>
</g>
<g>
</g>
<g>
</g>
<g>
</g>
<g>
</g>
<g>
</g>
</svg>
