<?xml version="1.0" encoding="iso-8859-1"?>
<!-- Generator: Adobe Illustrator 19.0.0, SVG Export Plug-In . SVG Version: 6.00 Build 0)  -->
<svg version="1.1" id="Layer_1" xmlns="http://www.w3.org/2000/svg" xmlns:xlink="http://www.w3.org/1999/xlink" x="0px" y="0px"
	 viewBox="0 0 498.4 498.4" style="enable-background:new 0 0 498.4 498.4;" xml:space="preserve">
<path style="fill:#05777C;" d="M498.4,347.696c0,11.128-9,21.504-20.112,21.504H25.176c-11.104,0-20.104-10.384-20.104-21.504l0,0
	c0-11.096,9-20.808,20.104-20.808l446.832,11.888C483.12,338.776,498.4,336.6,498.4,347.696L498.4,347.696z"/>
<path style="fill:#199387;" d="M252.4,347.696c0-11.096-14.352-10.496-25.464-10.496l-223.2,0.36C0.864,341.04,0,343.184,0,348.048
	c0,11.12,9.736,21.152,20.84,21.152h211.456C243.4,369.2,252.4,358.816,252.4,347.696z"/>
<path style="fill:#26A587;" d="M378.296,331.336l8.16-54.56c0-80.744-64.544-147.576-145.288-147.576h-87.696
	c-80.744,0-149.736,68.232-149.736,148.968v59.392L378.296,331.336z"/>
<path style="fill:#199387;" d="M3.736,337.56l384-0.36v-59.032c0-80.736-65.824-148.968-146.568-148.968h-85.432"/>
<path style="fill:#05777C;" d="M147.736,337.2l240,1.576v-60.608c0-80.736-65.824-148.968-146.568-148.968h-85.432"/>
<path style="fill:#DB9C2E;" d="M310.088,205.96c18.64,18.616,18.64,48.8,0,67.424c-18.6,18.608-48.8,18.608-67.4-0.008
	c-18.616-18.616-18.616-48.792,0-67.408C261.288,187.352,291.488,187.344,310.088,205.96z"/>
<path style="fill:#C9861B;" d="M242.688,205.968c18.6-18.616,48.8-18.624,67.4-0.008c18.64,18.616,18.64,48.8,0,67.424"/>
<g>
</g>
<g>
</g>
<g>
</g>
<g>
</g>
<g>
</g>
<g>
</g>
<g>
</g>
<g>
</g>
<g>
</g>
<g>
</g>
<g>
</g>
<g>
</g>
<g>
</g>
<g>
</g>
<g>
</g>
</svg>
