<?xml version="1.0" encoding="iso-8859-1"?>
<!-- Generator: Adobe Illustrator 19.0.0, SVG Export Plug-In . SVG Version: 6.00 Build 0)  -->
<svg version="1.1" id="Layer_1" xmlns="http://www.w3.org/2000/svg" xmlns:xlink="http://www.w3.org/1999/xlink" x="0px" y="0px"
	 viewBox="0 0 511.983 511.983" style="enable-background:new 0 0 511.983 511.983;" xml:space="preserve">
<path style="fill:#AAB2BC;" d="M485.314,245.33c0,17.672-14.328,32.007-32,32.007s-31.998-14.335-31.998-32.007
	s14.326-31.999,31.998-31.999S485.314,227.658,485.314,245.33z"/>
<rect x="16.002" y="85.333" style="fill:#ED5564;" width="319.99" height="426.65"/>
<rect x="314.642" y="85.333" style="opacity:0.2;fill:#FFFFFF;enable-background:new    ;" width="21.344" height="426.65"/>
<polygon style="fill:#DA4453;" points="15.998,85.334 59.294,192.003 292.553,192.003 335.99,85.334 "/>
<path style="fill:#E6E9ED;" d="M271.508,330.664c0,53.014-42.983,95.997-95.998,95.997c-53.014,0-95.997-42.983-95.997-95.997
	c0-53.015,42.983-95.998,95.997-95.998C228.524,234.666,271.508,277.649,271.508,330.664z"/>
<g>
	<rect x="69.322" style="fill:#F6BB42;" width="63.999" height="192"/>
	<rect x="143.992" y="85.333" style="fill:#F6BB42;" width="63.999" height="106.67"/>
	<rect x="218.652" y="85.333" style="fill:#F6BB42;" width="63.999" height="106.67"/>
</g>
<g>
	<path style="fill:#FFCE54;" d="M101.324,32.008c0,5.89-4.781,10.663-10.671,10.663s-10.656-4.773-10.656-10.663
		c0-5.891,4.765-10.672,10.656-10.672S101.324,26.117,101.324,32.008z"/>
	<path style="fill:#FFCE54;" d="M122.652,53.335c0,5.891-4.765,10.672-10.656,10.672s-10.672-4.781-10.672-10.672
		s4.781-10.664,10.672-10.664S122.652,47.444,122.652,53.335z"/>
	<path style="fill:#FFCE54;" d="M101.324,74.67c0,5.891-4.781,10.664-10.671,10.664S79.997,80.561,79.997,74.67
		c0-5.89,4.765-10.663,10.656-10.663S101.324,68.78,101.324,74.67z"/>
	<path style="fill:#FFCE54;" d="M175.994,117.333c0,5.891-4.781,10.672-10.671,10.672s-10.671-4.781-10.671-10.672
		s4.781-10.663,10.671-10.663S175.994,111.442,175.994,117.333z"/>
	<path style="fill:#FFCE54;" d="M197.322,138.669c0,5.891-4.781,10.663-10.671,10.663c-5.891,0-10.656-4.772-10.656-10.663
		s4.766-10.664,10.656-10.664C192.54,128.005,197.322,132.778,197.322,138.669z"/>
	<path style="fill:#FFCE54;" d="M175.994,160.004c0,5.891-4.781,10.664-10.671,10.664s-10.671-4.773-10.671-10.664
		s4.781-10.672,10.671-10.672S175.994,154.113,175.994,160.004z"/>
	<path style="fill:#FFCE54;" d="M250.648,117.333c0,5.891-4.765,10.672-10.656,10.672s-10.672-4.781-10.672-10.672
		s4.781-10.663,10.672-10.663S250.648,111.442,250.648,117.333z"/>
	<path style="fill:#FFCE54;" d="M271.992,138.669c0,5.891-4.781,10.663-10.672,10.663s-10.672-4.772-10.672-10.663
		s4.781-10.664,10.672-10.664S271.992,132.778,271.992,138.669z"/>
	<path style="fill:#FFCE54;" d="M250.648,160.004c0,5.891-4.765,10.664-10.656,10.664s-10.672-4.773-10.672-10.664
		s4.781-10.672,10.672-10.672S250.648,154.113,250.648,160.004z"/>
	<path style="fill:#FFCE54;" d="M122.652,95.998c0,5.891-4.765,10.672-10.656,10.672s-10.672-4.781-10.672-10.672
		s4.781-10.664,10.672-10.664S122.652,90.107,122.652,95.998z"/>
	<path style="fill:#FFCE54;" d="M101.324,117.333c0,5.891-4.781,10.672-10.671,10.672s-10.656-4.781-10.656-10.672
		s4.765-10.663,10.656-10.663S101.324,111.442,101.324,117.333z"/>
</g>
<g>
	<path style="fill:#434A54;" d="M229.321,319.992c0-5.891-4.781-10.656-10.671-10.656l0,0h-85.326
		c-5.891,0-10.672,4.766-10.672,10.656s4.781,10.672,10.672,10.672h85.326l0,0C224.54,330.664,229.321,325.883,229.321,319.992z"/>
	<path style="fill:#434A54;" d="M197.322,351.991L197.322,351.991h-42.67l0,0l0,0c-5.891,0-10.656,4.781-10.656,10.671
		c0,5.891,4.766,10.672,10.656,10.672l0,0l0,0h42.67l0,0c5.891,0,10.672-4.781,10.672-10.672
		C207.993,356.772,203.212,351.991,197.322,351.991z"/>
</g>
<rect x="357.312" y="298.663" style="fill:#ED5564;" width="128" height="213.32"/>
<rect x="357.312" y="213.333" style="fill:#CCD1D9;" width="85.33" height="85.33"/>
<path style="fill:#FFCE54;" d="M431.986,181.332c0,17.671-14.326,31.999-31.998,31.999c-17.688,0-32-14.328-32-31.999
	c0-17.672,20.797-53.327,32-53.327C411.176,128.005,431.986,163.66,431.986,181.332z"/>
<rect x="69.322" y="149.333" style="fill:#E6E9ED;" width="63.999" height="42.671"/>
<path style="fill:#434A54;" d="M485.314,277.337c-0.172,0-0.328,0.016-0.5,0.016v-0.016h-42.172v21.327h42.172v-0.031
	c0.172,0.016,0.328,0.031,0.5,0.031c5.891,0,10.672-4.781,10.672-10.671C495.986,282.102,491.205,277.337,485.314,277.337z"/>
<rect x="463.982" y="298.663" style="opacity:0.2;fill:#FFFFFF;enable-background:new    ;" width="21.328" height="213.32"/>
<g>
</g>
<g>
</g>
<g>
</g>
<g>
</g>
<g>
</g>
<g>
</g>
<g>
</g>
<g>
</g>
<g>
</g>
<g>
</g>
<g>
</g>
<g>
</g>
<g>
</g>
<g>
</g>
<g>
</g>
</svg>
