<?xml version="1.0" encoding="iso-8859-1"?>
<!-- Generator: Adobe Illustrator 19.0.0, SVG Export Plug-In . SVG Version: 6.00 Build 0)  -->
<svg version="1.1" id="Layer_1" xmlns="http://www.w3.org/2000/svg" xmlns:xlink="http://www.w3.org/1999/xlink" x="0px" y="0px"
	 viewBox="0 0 512 512" style="enable-background:new 0 0 512 512;" xml:space="preserve">
<g transform="translate(1 1)">
	<g>
		<polygon style="fill:#63D3FD;" points="255,7.533 306.2,58.733 203.8,58.733 		"/>
		<polygon style="fill:#63D3FD;" points="237.933,127 186.733,127 152.6,58.733 203.8,58.733 		"/>
		<polygon style="fill:#63D3FD;" points="357.4,58.733 306.2,58.733 272.067,127 323.267,127 		"/>
		<polygon style="fill:#63D3FD;" points="203.8,58.733 237.933,127 272.067,127 306.2,58.733 		"/>
		<polygon style="fill:#63D3FD;" points="152.6,58.733 203.8,58.733 255,7.533 186.733,7.533 		"/>
		<polygon style="fill:#63D3FD;" points="323.267,7.533 255,7.533 306.2,58.733 357.4,58.733 		"/>
	</g>
	<path style="fill:#FFE100;" d="M255,451.267c-80.213,0-145.067-64.853-145.067-145.067S174.787,161.133,255,161.133
		S400.067,225.987,400.067,306.2S335.213,451.267,255,451.267 M323.267,127H186.733c-72.533,29.013-128,96.427-128,179.2
		c0,108.373,87.893,196.267,196.267,196.267S451.267,414.573,451.267,306.2C451.267,223.427,396.653,156.013,323.267,127"/>
	<g>
		<polygon style="fill:#3DB9F9;" points="331.8,58.733 297.667,127 323.267,127 357.4,58.733 		"/>
		<polygon style="fill:#3DB9F9;" points="323.267,7.533 297.667,7.533 331.8,58.733 357.4,58.733 		"/>
	</g>
	<path style="fill:#FFA800;" d="M323.267,127h-25.6c72.533,29.013,128,96.427,128,179.2c0,104.107-81.067,189.44-183.467,195.413
		c4.267,0,8.533,0.853,12.8,0.853c108.373,0,196.267-87.893,196.267-196.267C451.267,223.427,396.653,156.013,323.267,127"/>
	<g>
		<polygon style="fill:#FFFFFF;" points="178.2,58.733 212.333,127 186.733,127 152.6,58.733 		"/>
		<polygon style="fill:#FFFFFF;" points="186.733,7.533 212.333,7.533 178.2,58.733 152.6,58.733 		"/>
		<path style="fill:#FFFFFF;" d="M186.733,127h25.6c-72.533,29.013-128,96.427-128,179.2c0,104.107,81.067,189.44,183.467,195.413
			c-4.267,0.853-8.533,0.853-12.8,0.853c-108.373,0-196.267-87.893-196.267-196.267C58.733,223.427,114.2,156.013,186.733,127"/>
	</g>
	<path d="M255,511c-112.64,0-204.8-92.16-204.8-204.8c0-81.92,52.053-155.307,133.12-186.88c0.853,0,1.707-0.853,3.413-0.853
		h136.533c0.853,0,2.56,0,3.413,0.853C407.747,150.893,459.8,224.28,459.8,306.2C459.8,418.84,368.493,511,255,511z M188.44,135.533
		C115.053,165.4,67.267,231.96,67.267,306.2c0,103.253,84.48,187.733,187.733,187.733s187.733-84.48,187.733-187.733
		c0-74.24-47.787-140.8-121.173-170.667H188.44z M255,459.8c-84.48,0-153.6-69.12-153.6-153.6S170.52,152.6,255,152.6
		s153.6,69.12,153.6,153.6S340.333,459.8,255,459.8z M255,169.667c-75.093,0-136.533,61.44-136.533,136.533
		S179.907,442.733,255,442.733s136.533-61.44,136.533-136.533S330.947,169.667,255,169.667z"/>
	<path d="M307.053,67.267C307.053,67.267,306.2,67.267,307.053,67.267H203.8c-3.413,0-6.827-1.707-7.68-5.12
		s-0.853-6.827,1.707-9.387l51.2-51.2c3.413-3.413,8.533-3.413,11.947,0l50.347,50.347c2.56,1.707,3.413,4.267,3.413,6.827
		C315.587,63.853,311.32,67.267,307.053,67.267z M225.133,50.2h61.44L255,19.48L225.133,50.2z"/>
	<path d="M238.787,135.533C238.787,135.533,237.933,135.533,238.787,135.533h-51.2c-3.413,0-5.973-1.707-7.68-5.12l-34.133-68.267
		c-1.707-2.56-0.853-5.973,0-8.533c1.707-1.707,4.267-3.413,6.827-3.413h51.2c3.413,0,5.973,1.707,7.68,5.12l33.28,66.56
		c0.853,1.707,1.707,3.413,1.707,5.12C247.32,132.12,243.053,135.533,238.787,135.533z M192.707,118.467h32.427l-25.6-51.2h-32.427
		L192.707,118.467z"/>
	<path d="M323.267,135.533h-51.2c-2.56,0-5.973-1.707-7.68-4.267c-1.707-2.56-1.707-5.973,0-8.533l34.133-68.267
		c1.707-2.56,5.12-4.267,7.68-4.267h51.2c2.56,0,5.973,1.707,7.68,4.267c1.707,2.56,1.707,5.973,0,8.533l-34.133,68.267
		C330.093,133.827,326.68,135.533,323.267,135.533z M286.573,118.467H319l25.6-51.2h-32.427L286.573,118.467z"/>
	<path d="M272.067,135.533h-34.133c-3.413,0-5.973-1.707-7.68-5.12L196.12,62.147c-1.707-2.56-0.853-5.973,0-8.533
		c2.56-1.707,5.12-3.413,7.68-3.413h102.4c2.56,0,5.973,1.707,7.68,4.267c1.707,2.56,1.707,5.973,0,8.533l-34.133,68.267
		C278.893,133.827,275.48,135.533,272.067,135.533z M243.907,118.467H267.8l25.6-51.2h-75.093L243.907,118.467z"/>
	<path d="M203.8,67.267h-51.2c-3.413,0-5.973-1.707-7.68-4.267s-1.707-5.973,0-8.533l34.133-51.2c2.56-2.56,5.12-4.267,7.68-4.267
		H255c3.413,0,6.827,1.707,7.68,5.12c1.707,3.413,0.853,6.827-1.707,9.387l-51.2,51.2C208.92,66.413,206.36,67.267,203.8,67.267z
		 M168.813,50.2h31.573l34.133-34.133H191L168.813,50.2z"/>
	<path d="M357.4,67.267h-51.2c-2.56,0-4.267-0.853-5.973-2.56l-51.2-51.2c-2.56-2.56-2.56-5.973-1.707-9.387
		C249.027,0.707,251.587-1,255-1h68.267c2.56,0,5.12,1.707,6.827,3.413l34.133,51.2c1.707,2.56,1.707,5.973,0,8.533
		S360.813,67.267,357.4,67.267z M310.467,50.2h31.573L319,16.067h-43.52L310.467,50.2z"/>
</g>
<g>
</g>
<g>
</g>
<g>
</g>
<g>
</g>
<g>
</g>
<g>
</g>
<g>
</g>
<g>
</g>
<g>
</g>
<g>
</g>
<g>
</g>
<g>
</g>
<g>
</g>
<g>
</g>
<g>
</g>
</svg>
