<?xml version="1.0" encoding="iso-8859-1"?>
<!-- Generator: Adobe Illustrator 19.0.0, SVG Export Plug-In . SVG Version: 6.00 Build 0)  -->
<svg version="1.1" id="Layer_1" xmlns="http://www.w3.org/2000/svg" xmlns:xlink="http://www.w3.org/1999/xlink" x="0px" y="0px"
	 viewBox="0 0 512.003 512.003" style="enable-background:new 0 0 512.003 512.003;" xml:space="preserve">
<path style="fill:#919CB0;" d="M12.803,179.201v-102.4h153.6v38.4c0,7.057,5.743,12.8,12.8,12.8h102.4c7.057,0,12.8-5.743,12.8-12.8
	v-38.4h204.8v102.4H12.803z"/>
<g>
	<polygon style="fill:#6D7584;" points="11.301,460.801 36.901,230.401 12.803,230.401 12.803,179.201 499.203,179.201 
		499.203,230.401 165.063,230.401 139.463,460.801 	"/>
	<rect x="166.403" y="76.801" style="fill:#6D7584;" width="128" height="51.2"/>
</g>
<g>
	<path style="fill:#573A32;" d="M486.403,64.001h-12.8c7.074,0,12.8-5.726,12.8-12.8s-5.726-12.8-12.8-12.8h-51.2
		c-7.074,0-12.8,5.726-12.8,12.8s5.726,12.8,12.8,12.8h-371.2v-12.8c0-7.074-5.726-12.8-12.8-12.8s-12.8,5.726-12.8,12.8v12.8
		c-14.14,0-25.6,11.46-25.6,25.6v128c0,13.133,9.882,23.953,22.613,25.429L0.156,445.177c-0.802,7.236,1.51,14.473,6.366,19.9
		c4.864,5.427,11.802,8.525,19.081,8.525h102.4c13.047,0,24.004-9.813,25.446-22.775l11.691-105.225h116.463
		c12.834,0,23.68-9.498,25.378-22.221l10.24-76.8c0.154-1.143-0.265-2.236-0.273-3.379h169.455c14.14,0,25.6-11.46,25.6-25.6v-128
		C512.003,75.462,500.542,64.001,486.403,64.001z M179.203,89.601h102.4v25.6h-102.4V89.601z M281.603,320.001H167.981l5.837-52.565
		c14.302,23.305,46.43,39.765,69.385,39.765c7.074,0,12.8-5.726,12.8-12.8s-5.726-12.8-12.8-12.8c-19.746,0-51.2-20.966-51.2-38.4
		h99.84L281.603,320.001z M486.403,217.601h-194.56H158.407h-4.804l-25.6,230.4h-102.4l2.842-25.6h61.158
		c7.074,0,12.8-5.726,12.8-12.8s-5.726-12.8-12.8-12.8H31.294l2.842-25.6h63.147c7.074,0,12.8-5.726,12.8-12.8
		s-5.726-12.8-12.8-12.8H36.978l2.842-25.6h65.143c7.074,0,12.8-5.726,12.8-12.8c0-7.074-5.726-12.8-12.8-12.8H42.669l8.533-76.8
		h-25.6v-25.6h460.8V217.601z M486.403,166.401h-460.8v-76.8h128v25.6c0,14.14,11.46,25.6,25.6,25.6h102.4
		c14.14,0,25.6-11.46,25.6-25.6v-25.6h179.2V166.401z"/>
	<path style="fill:#573A32;" d="M115.203,115.201h-51.2c-7.074,0-12.8,5.726-12.8,12.8s5.726,12.8,12.8,12.8h51.2
		c7.074,0,12.8-5.726,12.8-12.8S122.277,115.201,115.203,115.201z"/>
</g>
<g>
</g>
<g>
</g>
<g>
</g>
<g>
</g>
<g>
</g>
<g>
</g>
<g>
</g>
<g>
</g>
<g>
</g>
<g>
</g>
<g>
</g>
<g>
</g>
<g>
</g>
<g>
</g>
<g>
</g>
</svg>
