<?xml version="1.0" encoding="iso-8859-1"?>
<!-- Generator: Adobe Illustrator 19.1.0, SVG Export Plug-In . SVG Version: 6.00 Build 0)  -->
<svg version="1.1" id="Capa_1" xmlns="http://www.w3.org/2000/svg" xmlns:xlink="http://www.w3.org/1999/xlink" x="0px" y="0px"
	 viewBox="0 0 418.7 418.7" style="enable-background:new 0 0 418.7 418.7;" xml:space="preserve">
<g>
	<g>
		<g id="XMLID_22_">
			<g>
				<rect x="36.42" y="179.98" style="fill:#4A78BA;" width="20.43" height="29"/>
				<rect x="361.85" y="179.98" style="fill:#4A78BA;" width="20.43" height="29"/>
				<path style="fill:#4D4D4D;" d="M56.85,221.98v84.11c-5.55-10.26-8.5-21.79-8.5-33.78v-50.33H56.85z"/>
				<path style="fill:#4D4D4D;" d="M370.35,221.98v50.33c0,11.99-2.95,23.52-8.5,33.78v-84.11H370.35z"/>
				<path style="fill:#4D4D4D;" d="M369.44,166.98h-14.09c-0.06,0-0.12,0.01-0.18,0.01c-0.1,0-0.19,0.01-0.29,0.02
					c-0.15,0.01-0.3,0.02-0.45,0.04c-0.08,0.02-0.16,0.03-0.24,0.04c-0.18,0.03-0.36,0.08-0.54,0.13c-0.04,0.01-0.08,0.01-0.11,0.02
					c-94.33,27.4-194.05,27.4-288.38,0c-0.03-0.01-0.07-0.01-0.11-0.02c-0.18-0.05-0.36-0.1-0.54-0.13
					c-0.08-0.01-0.16-0.02-0.24-0.04c-0.15-0.02-0.3-0.03-0.45-0.04c-0.1-0.01-0.19-0.02-0.29-0.02c-0.06,0-0.12-0.01-0.18-0.01
					H49.26c3.43-85.35,73.92-153.73,160.09-153.73S366.01,81.63,369.44,166.98z M344.69,136.23c3.41-1.12,5.27-4.8,4.15-8.21
					c-11.57-35.12-35.85-64.28-68.39-82.1c-3.14-1.73-7.09-0.58-8.82,2.57c-1.72,3.15-0.57,7.1,2.58,8.83
					c29.63,16.23,51.75,42.78,62.28,74.77c0.9,2.73,3.44,4.47,6.17,4.47C343.33,136.56,344.02,136.45,344.69,136.23z M258.59,42.93
					c1.08-3.42-0.83-7.07-4.25-8.15c-7.25-2.27-14.74-3.99-22.26-5.1c-3.55-0.52-6.86,1.93-7.38,5.48
					c-0.52,3.56,1.93,6.86,5.48,7.38c6.85,1.01,13.67,2.57,20.26,4.65c0.65,0.2,1.31,0.3,1.95,0.3
					C255.16,47.49,257.72,45.71,258.59,42.93z"/>
				<path style="fill:#333333;" d="M395.28,173.48v42c0,3.59-2.91,6.5-6.5,6.5h-5.43v50.33c0,20.94-7.61,40.72-21.5,56.18v18.96
					c0,9.64-3.35,19.07-9.43,26.55l-23.41,28.8c-8.02,9.87-19.92,15.54-32.64,15.54l-173.52,0.11h-0.03
					c-12.63,0-24.48-5.6-32.51-15.36l-23.87-29.02c-6.19-7.52-9.59-17.02-9.59-26.75v-18.83c-13.89-15.46-21.5-35.24-21.5-56.18
					v-50.33h-5.43c-3.59,0-6.5-2.91-6.5-6.5v-42c0-3.59,2.91-6.5,6.5-6.5h6.34C39.69,74.46,116.01,0.25,209.35,0.25
					s169.67,74.21,173.1,166.73h6.33C392.37,166.98,395.28,169.89,395.28,173.48z M382.28,208.98v-29h-20.43v29H382.28z
					 M370.35,272.31v-50.33h-8.5v84.11C367.4,295.83,370.35,284.3,370.35,272.31z M355.35,166.98h14.09
					c-3.43-85.35-73.92-153.73-160.09-153.73S52.69,81.63,49.26,166.98h14.09c0.06,0,0.12,0.01,0.18,0.01c0.1,0,0.19,0.01,0.29,0.02
					c0.15,0.01,0.3,0.02,0.45,0.04c0.08,0.02,0.16,0.03,0.24,0.04c0.18,0.03,0.36,0.08,0.54,0.13c0.04,0.01,0.08,0.01,0.11,0.02
					c94.33,27.4,194.05,27.4,288.38,0c0.03-0.01,0.07-0.01,0.11-0.02c0.18-0.05,0.36-0.1,0.54-0.13c0.08-0.01,0.16-0.02,0.24-0.04
					c0.15-0.02,0.3-0.03,0.45-0.04c0.1-0.01,0.19-0.02,0.29-0.02C355.23,166.99,355.29,166.98,355.35,166.98z M348.85,347.45V182.07
					c-12.01,3.28-24.11,6.13-36.26,8.54c-4.26,0.85-8.53,1.65-12.81,2.39c-5.09,0.89-10.19,1.69-15.29,2.42
					c-4.3,0.62-8.59,1.19-12.89,1.69c-47.68,5.66-95.89,4.8-143.41-2.59c-4.29-0.66-8.57-1.38-12.85-2.16
					c-15.26-2.75-30.44-6.18-45.49-10.29v165.25c0,6.73,2.35,13.29,6.63,18.49l23.87,29.02c4.33,5.27,10.26,8.78,16.81,10.06
					c1.84,0.37,3.74,0.56,5.66,0.56c0.01,0,0.01,0,0.02,0h7.49l138.53-0.09l13.11-0.01l14.39-0.01c0.4,0,0.8-0.01,1.19-0.03
					c4.88-0.19,9.55-1.6,13.64-4.04c2.91-1.72,5.53-3.97,7.73-6.67l23.41-28.8C346.54,360.63,348.85,354.11,348.85,347.45z
					 M56.85,306.09v-84.11h-8.5v50.33C48.35,284.3,51.3,295.83,56.85,306.09z M56.85,208.98v-29H36.42v29H56.85z"/>
				<path style="fill:#FFFFFF;" d="M348.84,128.02c1.12,3.41-0.74,7.09-4.15,8.21c-0.67,0.22-1.36,0.33-2.03,0.33
					c-2.73,0-5.27-1.74-6.17-4.47c-10.53-31.99-32.65-58.54-62.28-74.77c-3.15-1.73-4.3-5.68-2.58-8.83
					c1.73-3.15,5.68-4.3,8.82-2.57C312.99,63.74,337.27,92.9,348.84,128.02z"/>
				<path style="fill:#8AD1D6;" d="M348.85,182.07v165.38c0,6.66-2.31,13.18-6.52,18.35l-23.41,28.8c-2.2,2.7-4.82,4.95-7.73,6.67
					c-4.09,2.44-8.76,3.85-13.64,4.04c-0.39,0.02-0.79,0.03-1.19,0.03l-14.39,0.01l-13.11,0.01l-138.53,0.09h-7.49
					c-0.01,0-0.01,0-0.02,0c-1.92,0-3.82-0.19-5.66-0.56c-6.55-1.28-12.48-4.79-16.81-10.06l-23.87-29.02
					c-4.28-5.2-6.63-11.76-6.63-18.49V182.07c15.05,4.11,30.23,7.54,45.49,10.29c4.28,0.78,8.56,1.5,12.85,2.16
					c47.52,7.39,95.73,8.25,143.41,2.59c4.3-0.5,8.59-1.07,12.89-1.69c5.1-0.73,10.2-1.53,15.29-2.42
					c4.28-0.74,8.55-1.54,12.81-2.39C324.74,188.2,336.84,185.35,348.85,182.07z"/>
				<path style="fill:#FFFFFF;" d="M254.34,34.78c3.42,1.08,5.33,4.73,4.25,8.15c-0.87,2.78-3.43,4.56-6.2,4.56
					c-0.64,0-1.3-0.1-1.95-0.3c-6.59-2.08-13.41-3.64-20.26-4.65c-3.55-0.52-6-3.82-5.48-7.38c0.52-3.55,3.83-6,7.38-5.48
					C239.6,30.79,247.09,32.51,254.34,34.78z"/>
			</g>
			<g>
			</g>
		</g>
	</g>
	<path style="opacity:0.73;fill:#FFFFFF;" d="M311.19,401.27c-4.09,2.44-8.76,3.85-13.64,4.04c9.31-70.04,10.05-141.43,2.23-212.31
		c4.28-0.74,8.55-1.54,12.81-2.39C320.42,260.91,319.95,331.72,311.19,401.27z"/>
	<path style="opacity:0.73;fill:#FFFFFF;" d="M281.97,405.35l-13.11,0.01c9.03-68.71,9.95-138.71,2.74-208.25
		c4.3-0.5,8.59-1.07,12.89-1.69C291.79,265.51,290.95,336.06,281.97,405.35z"/>
	<path style="opacity:0.73;fill:#FFFFFF;" d="M130.33,405.45h-7.49c-0.01,0-0.01,0-0.02,0c-1.92,0-3.82-0.19-5.66-0.56
		c-8.7-70.19-9.31-141.58-1.82-212.53c4.28,0.78,8.56,1.5,12.85,2.16C120.81,264.95,121.53,335.81,130.33,405.45z"/>
</g>
<g>
</g>
<g>
</g>
<g>
</g>
<g>
</g>
<g>
</g>
<g>
</g>
<g>
</g>
<g>
</g>
<g>
</g>
<g>
</g>
<g>
</g>
<g>
</g>
<g>
</g>
<g>
</g>
<g>
</g>
</svg>
