<?xml version="1.0" encoding="iso-8859-1"?>
<!-- Generator: Adobe Illustrator 17.1.0, SVG Export Plug-In . SVG Version: 6.00 Build 0)  -->
<!DOCTYPE svg PUBLIC "-//W3C//DTD SVG 1.1//EN" "http://www.w3.org/Graphics/SVG/1.1/DTD/svg11.dtd">
<svg version="1.1" id="Capa_1" xmlns="http://www.w3.org/2000/svg" xmlns:xlink="http://www.w3.org/1999/xlink" x="0px" y="0px"
	 viewBox="0 0 198.767 198.767" style="enable-background:new 0 0 198.767 198.767;" xml:space="preserve">
<path d="M41.089,118.314c-13.454-16.443-18.457-32.206-18.457-58.158C22.633,30.262,44.474,0,86.218,0
	c27.958,0,47.147,8.26,58.828,18.86c-5.355-0.208-11.565-0.487-17.745-0.85c-13.121-0.768-18.276,4.591-20.176,7.855
	c-2.602,4.468-2.253,10.068,0.931,14.981c2.795,4.313,4.823,8.56,6,11.272c-4.271,2.93-11.827,9.115-14.951,17.896
	c-2.605,7.323-3.539,14.19-3.872,18.341h-8.209c-0.615-5.112-2.577-13.907-8.83-19.228c-4.456-3.792-10.136-5.156-16.883-4.053
	c-5.889,0.962-10.101,3.636-12.517,7.946c-5.25,9.365,0.464,23.383,2.342,27.989c2.313,5.676,5.701,19.506,7.21,25.895l-10.585,4.19
	C46.254,126.507,44.121,122.019,41.089,118.314z M174.441,102.432c-10.701-12.672-14.116-18.537-14.475-20.078
	c0.057-3.309,2.154-10.679,3.483-14.604c0.153-0.453,0.224-0.93,0.209-1.407c-0.02-0.637-0.555-15.784-6.758-31.053
	c-1.104-2.718-2.6-5.465-4.496-8.163c-6.482-0.209-16.06-0.572-25.572-1.13c-6.471-0.38-11.132,1.039-12.794,3.894
	c-1.052,1.807-0.779,4.276,0.73,6.604c5.176,7.986,7.904,15.566,8.018,15.885c0.662,1.857-0.128,3.919-1.861,4.859
	c-0.102,0.056-10.947,6.08-14.284,15.458c-3.609,10.144-3.593,19.535-3.593,19.629c0.006,1.065-0.412,2.092-1.163,2.847
	c-0.751,0.755-1.772,1.183-2.837,1.183H83.304c-1.062,0-2.08-0.422-2.83-1.173c-0.75-0.751-1.171-1.77-1.17-2.832
	c0-0.11-0.106-11.886-6.312-17.145c-2.619-2.22-6.02-2.95-10.392-2.236c-3.413,0.558-5.646,1.854-6.829,3.963
	c-2.233,3.983-1.3,11.068,2.772,21.058c3.289,8.068,8.174,29.57,8.38,30.482c0.435,1.923-0.596,3.876-2.429,4.603l-14.724,5.829
	c1.888,9.703,1.514,18.061,1.509,18.154l-2.771,37.415c-0.082,1.109,0.301,2.203,1.058,3.018s1.819,1.278,2.931,1.278h64.205
	c0.007,0,0.014,0,0.02,0c2.209,0,4-1.791,4-4c0-0.223-0.018-0.442-0.053-0.655c-0.938-15.021-0.933-32.586,0.447-37.925
	c1.383,0.076,3.086,0.118,4.953,0.118c13.706,0,30.594-1.596,33.214-9.195c2.031-5.889,3.153-23.595,3.537-30.819l8.127-2.35
	c2.346-0.678,4.168-2.477,4.875-4.812C176.531,106.797,176.014,104.294,174.441,102.432z"/>
<g>
</g>
<g>
</g>
<g>
</g>
<g>
</g>
<g>
</g>
<g>
</g>
<g>
</g>
<g>
</g>
<g>
</g>
<g>
</g>
<g>
</g>
<g>
</g>
<g>
</g>
<g>
</g>
<g>
</g>
</svg>
