<?xml version="1.0" encoding="iso-8859-1"?>
<!-- Generator: Adobe Illustrator 19.0.0, SVG Export Plug-In . SVG Version: 6.00 Build 0)  -->
<svg version="1.1" id="Layer_1" xmlns="http://www.w3.org/2000/svg" xmlns:xlink="http://www.w3.org/1999/xlink" x="0px" y="0px"
	 viewBox="0 0 512.001 512.001" style="enable-background:new 0 0 512.001 512.001;" xml:space="preserve">
<path style="fill:#8C4F39;" d="M256.517,366.012L140.601,481.928c-26.499,26.499-69.461,26.499-95.959,0L27.234,464.52
	l163.895-163.895L256.517,366.012z"/>
<path style="fill:#BDCED4;" d="M305.77,415.266l92.46-113.184c66.735-81.695,96.874-187.27,83.323-291.883l0,0L191.129,300.624
	L305.77,415.266z"/>
<path d="M491.668,8.889c-0.499-3.855-3.146-7.092-6.826-8.344c-3.68-1.253-7.752-0.307-10.5,2.443L183.917,293.412L20.022,457.307
	c-1.912,1.912-2.987,4.507-2.987,7.212s1.075,5.299,2.987,7.212l17.409,17.408c14.742,14.743,34.342,22.862,55.191,22.862
	s40.45-8.119,55.192-22.862l108.703-108.703l42.042,42.041c1.916,1.917,4.513,2.987,7.211,2.987c0.17,0,0.341-0.004,0.512-0.013
	c2.879-0.145,5.563-1.501,7.387-3.734l92.46-113.185c34.095-41.737,58.884-89.177,73.677-140.999
	C494.601,115.713,498.591,62.336,491.668,8.889z M133.39,474.715c-10.889,10.89-25.367,16.887-40.767,16.887
	s-29.878-5.997-40.767-16.887l-10.197-10.196l149.471-149.47l50.964,50.964L133.39,474.715z M205.553,300.624L473.557,32.62
	c6.747,94.518-23.033,189.324-83.225,263.009l-85.324,104.45L205.553,300.624z"/>
<path d="M332.526,199.151l-91.713,91.713c-3.983,3.983-3.983,10.441,0,14.425c1.992,1.992,4.602,2.987,7.212,2.987
	s5.221-0.995,7.212-2.987l91.713-91.713c3.983-3.983,3.983-10.441,0-14.425C342.967,195.168,336.509,195.168,332.526,199.151z"/>
<path d="M365.645,166.033l-5.944,5.945c-3.983,3.983-3.983,10.441,0,14.424c1.992,1.992,4.602,2.987,7.212,2.987
	c2.61,0,5.221-0.996,7.212-2.987l5.944-5.945c3.983-3.983,3.983-10.441,0-14.424C376.086,162.05,369.628,162.051,365.645,166.033z"
	/>
<g>
</g>
<g>
</g>
<g>
</g>
<g>
</g>
<g>
</g>
<g>
</g>
<g>
</g>
<g>
</g>
<g>
</g>
<g>
</g>
<g>
</g>
<g>
</g>
<g>
</g>
<g>
</g>
<g>
</g>
</svg>
