<?xml version="1.0" encoding="iso-8859-1"?>
<!-- Generator: Adobe Illustrator 19.0.0, SVG Export Plug-In . SVG Version: 6.00 Build 0)  -->
<svg version="1.1" id="Capa_1" xmlns="http://www.w3.org/2000/svg" xmlns:xlink="http://www.w3.org/1999/xlink" x="0px" y="0px"
	 viewBox="0 0 470 470" style="enable-background:new 0 0 470 470;" xml:space="preserve">
<g>
	<path style="fill:#FFFFFF;" d="M265.824,55.17c-2.786-3.066-2.559-7.809,0.508-10.595c5.512-5.009,11.13-9.975,16.765-14.821
		c-3.209-3.879-6.39-7.744-9.535-11.584c-15.279,13.131-30.21,26.931-44.463,41.098c-14.141,14.227-27.937,29.153-41.065,44.43
		c3.841,3.146,7.707,6.328,11.587,9.538c12.809-14.893,26.266-29.455,40.084-43.361c1.452-1.443,2.878-2.849,4.31-4.251
		c2.961-2.898,7.71-2.847,10.606,0.113C258.346,62.215,262.083,58.692,265.824,55.17z"/>
	<path style="fill:#87635C;" d="M402.015,158.243c-0.01-0.01-36.464-36.464-36.464-36.464c-26.146-26.147-50.3-53.589-72.854-80.496
		c-5.47,4.708-10.925,9.53-16.28,14.394c-1.437,1.306-3.241,1.949-5.041,1.949c-2.026,0-4.044-0.818-5.521-2.425
		c-3.772,3.49-7.509,7.013-11.207,10.567c2.867,2.962,2.809,7.686-0.141,10.574c-1.406,1.376-2.805,2.756-4.196,4.139
		c-13.481,13.566-26.637,27.796-39.165,42.354c26.894,22.543,54.324,46.687,80.464,72.824c0.031,0.031,56.328,56.325,56.328,56.325
		l73.909-73.909L402.015,158.243z M293.297,187.168c-1.919,0-3.839-0.732-5.304-2.197c-2.929-2.929-2.929-7.678,0-10.606
		l56.232-56.232c2.93-2.929,7.678-2.929,10.607,0c2.929,2.929,2.929,7.678,0,10.606l-56.232,56.232
		C297.136,186.436,295.216,187.168,293.297,187.168z M349.427,235.795c-1.465,1.464-3.385,2.197-5.304,2.197
		s-3.839-0.732-5.304-2.197c-2.929-2.929-2.929-7.678,0-10.606l56.23-56.231c2.93-2.929,7.678-2.929,10.607,0
		c2.929,2.929,2.929,7.678,0,10.606L349.427,235.795z"/>
	
		<rect x="393.014" y="107.806" transform="matrix(-0.7071 0.7071 -0.7071 -0.7071 768.0858 -65.9613)" style="fill:#FCDB5A;" width="9.378" height="36.562"/>
	<path style="fill:#FCDB5A;" d="M286.358,211.619L108.63,390.657c-1.407,1.418-3.323,2.216-5.322,2.216H66.653L47.876,411.65
		c-3.783,3.783-3.783,9.939,0,13.722l23.622,23.623C75.37,452.867,80.547,455,86.076,455s10.706-2.132,14.577-6.004l211.539-211.544
		L286.358,211.619z"/>
	<path style="fill:#4D3D36;" d="M437.757,172.772l-19.836-19.837l11.934-11.934c1.407-1.406,2.197-3.314,2.197-5.303
		s-0.79-3.897-2.196-5.303l-36.46-36.459c-1.407-1.407-3.314-2.197-5.304-2.197s-3.896,0.79-5.304,2.197l-11.906,11.906
		C337.807,72.201,307.857,36.49,280.336,2.758c-1.271-1.558-3.114-2.54-5.116-2.727c-2-0.185-3.994,0.438-5.531,1.735
		c-17.611,14.854-34.825,30.622-51.197,46.895c-16.244,16.342-32.011,33.557-46.863,51.166c-1.296,1.537-1.921,3.529-1.734,5.531
		c0.187,2.001,1.169,3.845,2.727,5.115c33.735,27.524,69.451,57.479,103.103,90.567L100.185,377.873H63.546
		c-1.989,0-3.896,0.79-5.304,2.197l-20.974,20.974c-9.631,9.632-9.631,25.303,0,34.935l23.622,23.623
		C67.596,466.307,76.54,470,86.076,470s18.479-3.693,25.185-10.398l211.538-211.543l19.836,19.835
		c1.465,1.464,3.384,2.197,5.304,2.197c1.919,0,3.839-0.732,5.304-2.197l84.516-84.515
		C440.686,180.45,440.686,175.701,437.757,172.772z M86.076,455c-5.528,0-10.706-2.132-14.577-6.004l-23.622-23.623
		c-3.783-3.783-3.783-9.939,0-13.722l18.776-18.777h36.655c1.999,0,3.915-0.798,5.322-2.216l177.728-179.038l25.833,25.833
		L100.653,448.995C96.782,452.867,91.604,455,86.076,455z M291.641,195.69c-26.171-26.168-53.601-50.311-80.495-72.854
		c12.528-14.558,25.684-28.787,39.165-42.354c1.392-1.383,2.79-2.763,4.196-4.139c2.95-2.888,3.008-7.612,0.141-10.574
		c-2.925-2.992-7.674-3.043-10.635-0.145c-1.432,1.402-2.857,2.809-4.31,4.251c-13.818,13.906-27.275,28.468-40.084,43.361
		c-3.88-3.21-7.746-6.392-11.587-9.538c13.129-15.277,26.925-30.204,41.065-44.43c14.253-14.167,29.184-27.967,44.463-41.098
		c3.145,3.84,6.326,7.705,9.535,11.584c-5.634,4.846-11.252,9.812-16.765,14.821c-3.066,2.786-3.294,7.529-0.508,10.595
		c1.508,1.638,3.527,2.457,5.553,2.457c1.8,0,3.604-0.644,5.041-1.949c5.354-4.864,10.809-9.686,16.28-14.394
		c22.554,26.907,46.708,54.35,72.854,80.496l36.454,36.454c0.01,0.01,19.842,19.841,19.842,19.841l-73.909,73.909L291.641,195.69z
		 M413.946,135.698l-6.631,6.631l-25.853-25.853l6.631-6.631L413.946,135.698z"/>
	<path style="fill:#4D3D36;" d="M354.833,118.132c-2.93-2.929-7.678-2.929-10.607,0l-56.232,56.232
		c-2.929,2.929-2.929,7.678,0,10.606c1.465,1.464,3.385,2.197,5.304,2.197s3.839-0.732,5.304-2.197l56.232-56.232
		C357.762,125.81,357.762,121.061,354.833,118.132z"/>
	<path style="fill:#4D3D36;" d="M405.658,168.958c-2.93-2.929-7.678-2.929-10.607,0l-56.23,56.231
		c-2.929,2.929-2.929,7.678,0,10.606c1.465,1.464,3.385,2.197,5.304,2.197s3.839-0.732,5.304-2.197l56.23-56.231
		C408.586,176.635,408.586,171.886,405.658,168.958z"/>
</g>
<g>
</g>
<g>
</g>
<g>
</g>
<g>
</g>
<g>
</g>
<g>
</g>
<g>
</g>
<g>
</g>
<g>
</g>
<g>
</g>
<g>
</g>
<g>
</g>
<g>
</g>
<g>
</g>
<g>
</g>
</svg>
