<?xml version="1.0" encoding="iso-8859-1"?>
<!-- Generator: Adobe Illustrator 19.1.0, SVG Export Plug-In . SVG Version: 6.00 Build 0)  -->
<svg version="1.1" id="Capa_1" xmlns="http://www.w3.org/2000/svg" xmlns:xlink="http://www.w3.org/1999/xlink" x="0px" y="0px"
	 viewBox="0 0 471.501 471.501" style="enable-background:new 0 0 471.501 471.501;" xml:space="preserve">
<g>
	<g id="XMLID_22_">
		<g>
			<path style="fill:#EAC93F;" d="M388.575,303.94c1.05,1.46,2.61,5.02,2.61,10.67c0,5.64-1.56,9.2-2.61,10.66
				c-1.05-1.46-2.6-5.02-2.6-10.66C385.975,308.96,387.525,305.4,388.575,303.94z"/>
			<path style="fill:#EAC93F;" d="M82.925,303.94c1.05,1.46,2.6,5.02,2.6,10.67c0,5.64-1.55,9.2-2.6,10.66
				c-1.05-1.46-2.6-5.02-2.6-10.66C80.325,308.96,81.875,305.4,82.925,303.94z"/>
			<path style="fill:#666666;" d="M375.355,301.2c-1.3,3.24-2.12,7.06-2.32,11.28c-38.49-11.03-86.78-17.07-137.28-17.07
				c-50.51,0-98.8,6.04-137.28,17.07c-0.21-4.22-1.02-8.04-2.33-11.28c38.19-11.84,87.33-18.31,139.61-18.31
				C288.025,282.89,337.165,289.36,375.355,301.2z"/>
			<path style="fill:#EAC93F;" d="M266.955,160.83c2.59,5.66,2.58,11.87-0.03,17.46c-2.61,5.62-7.46,9.77-13.3,11.39
				c-0.01,0.01-0.02,0.01-0.03,0.01c-0.19,0.06-0.46,0.11-0.79,0.17c-6.3,1.23-12.17,4.04-17.05,8.1
				c-4.89-4.06-10.76-6.87-17.08-8.1c-0.31-0.06-0.58-0.12-0.8-0.18c-5.84-1.62-10.69-5.77-13.3-11.38
				c-2.6-5.6-2.61-11.81-0.03-17.47l3.15-6.89c1.83-4.02,2.77-8.3,2.77-12.71c0-5.86-1.64-11.48-4.7-16.32l6.18-6.25
				c3.6,1.84,7.62,2.82,11.72,2.82c4.22,0,8.38-1.06,12.09-3.02c3.7,1.96,7.86,3.02,12.08,3.02c4.11,0,8.12-0.98,11.72-2.82
				l6.19,6.25c-3.06,4.84-4.7,10.46-4.7,16.32c0,4.42,0.93,8.7,2.76,12.72L266.955,160.83z"/>
			<path style="fill:#999999;" d="M379.255,267.9v20.9c-39.44-12.22-89.95-18.91-143.5-18.91c-53.56,0-104.06,6.69-143.5,18.91
				v-20.9c27.47-22.53,83.26-36.97,143.5-36.97S351.775,245.37,379.255,267.9z"/>
			<path style="fill:#333333;" d="M374.815,326.56c1.31,3.85,3.27,6.97,5.7,9.1c-1.42,12.18-15.85,24.46-40.09,33.97
				c-7.34,2.88-15.32,5.42-23.83,7.59h-0.01c-5.1,1.31-10.38,2.49-15.83,3.52c-19.96,3.82-42.07,5.84-65,5.84
				c-19.57,0-38.54-1.46-56.08-4.28h-0.01c-4.49-0.71-8.89-1.51-13.17-2.41c-3.88-0.79-7.66-1.66-11.35-2.61
				c-4.36-1.1-8.58-2.31-12.64-3.61c-3.96-1.26-7.78-2.61-11.43-4.04c-24.24-9.51-38.66-21.79-40.09-33.97
				c2.43-2.13,4.39-5.25,5.7-9.1c21.49-6.6,46.49-11.52,73.48-14.57c4.91-0.55,9.88-1.04,14.91-1.47c4.27-0.36,8.59-0.68,12.95-0.95
				c4.82-0.3,9.68-0.54,14.58-0.72c7.64-0.29,15.36-0.44,23.15-0.44c33.12,0,65.21,2.64,94.01,7.62c4.46,0.76,8.84,1.59,13.14,2.48
				h0.01C354.205,320.81,364.885,323.51,374.815,326.56z"/>
			<path style="fill:#666666;" d="M242.255,87.44l146.83,48.94c-3.68,14.9-16.23,57.66-46.85,97.68
				c-28.09-9.72-62.82-15.47-99.98-16.07v-8.37c3.52-3.57,8.07-6.03,13.03-7c0.73-0.14,1.33-0.28,1.83-0.42
				c9.51-2.64,17.38-9.36,21.6-18.42c4.17-8.97,4.2-19.3,0.07-28.35l-3.15-6.89c-1.06-2.31-1.59-4.77-1.59-7.31
				c0-4.62,1.77-8.99,4.99-12.3c2.47-2.54,2.46-6.59-0.04-9.11l-13.95-14.09c-2.41-2.43-6.29-2.58-8.87-0.35
				c-2.31,2-5.27,3.1-8.34,3.1c-1.97,0-3.86-0.45-5.58-1.3V87.44z"/>
			<path style="fill:#666666;" d="M229.255,209.62v8.37c-37.17,0.6-71.9,6.35-99.98,16.07c-30.63-40.02-43.18-82.78-46.86-97.68
				l146.84-48.94v19.74c-1.73,0.85-3.62,1.3-5.59,1.3c-3.06,0-6.02-1.1-8.33-3.1c-2.59-2.23-6.47-2.08-8.87,0.35l-13.96,14.09
				c-2.49,2.52-2.51,6.57-0.04,9.11c3.22,3.31,5,7.67,5,12.3c0,2.54-0.54,5-1.6,7.31l-3.14,6.89c-4.13,9.05-4.11,19.38,0.07,28.35
				c4.21,9.07,12.09,15.78,21.57,18.42c0.51,0.14,1.12,0.28,1.84,0.42C221.175,203.59,225.725,206.05,229.255,209.62z"/>
			<path style="fill:#4D4D4D;" d="M116.635,238.9c-14.14,5.97-26.11,13.08-35.19,21.13c-1.4,1.24-2.19,3.01-2.19,4.87v23.67
				c-30.2-11.72-55.21-32.64-64.28-40.81l57.37-98.58C78.085,168.97,90.965,204.33,116.635,238.9z"/>
			<path style="fill:#4D4D4D;" d="M399.155,149.18l57.37,98.58c-9.05,8.17-34.02,29.08-64.27,40.81V264.9c0-1.86-0.8-3.63-2.19-4.87
				c-9.09-8.05-21.05-15.16-35.19-21.13C380.545,204.33,393.415,168.98,399.155,149.18z"/>
			<path style="fill:#333333;" d="M437.185,279.32l-35.62,54.57l-3.56,0.42c3.83-4.29,6.18-11.3,6.18-19.7
				c0-6.05-1.22-11.37-3.33-15.48C414.445,293.47,426.815,286.3,437.185,279.32z"/>
			<path style="fill:#333333;" d="M73.495,334.31l-3.56-0.42l-35.62-54.57c10.38,6.98,22.74,14.15,36.33,19.81
				c-2.1,4.11-3.32,9.43-3.32,15.48C67.325,323.01,69.675,330.02,73.495,334.31z"/>
			<path style="fill:#333333;" d="M470.375,245.7c1.23,2.13,1.16,4.77-0.18,6.82l-59.4,91.03c-1.06,1.62-2.78,2.68-4.7,2.9
				l-16.12,1.88c-6.6,12.89-21.94,24.43-44.8,33.4c-29.33,11.51-68.19,17.85-109.42,17.85s-80.09-6.34-109.43-17.85
				c-22.86-8.97-38.2-20.51-44.79-33.4l-16.13-1.88c-1.92-0.22-3.64-1.28-4.69-2.9l-59.41-91.03c-1.34-2.05-1.41-4.69-0.17-6.82
				l68.03-116.89c0.79-1.37,2.06-2.4,3.56-2.9l160.97-53.66c1.34-0.44,2.78-0.44,4.11,0l160.97,53.66c1.5,0.5,2.77,1.53,3.57,2.9
				L470.375,245.7z M456.525,247.76l-57.37-98.58c-5.74,19.8-18.61,55.15-44.28,89.72c14.14,5.97,26.1,13.08,35.19,21.13
				c1.39,1.24,2.19,3.01,2.19,4.87v23.67C422.505,276.84,447.475,255.93,456.525,247.76z M401.565,333.89l35.62-54.57
				c-10.37,6.98-22.74,14.15-36.33,19.81c2.11,4.11,3.33,9.43,3.33,15.48c0,8.4-2.35,15.41-6.18,19.7L401.565,333.89z
				 M391.185,314.61c0-5.65-1.56-9.21-2.61-10.67c-1.05,1.46-2.6,5.02-2.6,10.67c0,5.64,1.55,9.2,2.6,10.66
				C389.625,323.81,391.185,320.25,391.185,314.61z M389.085,136.38l-146.83-48.94v19.74c1.72,0.85,3.61,1.3,5.58,1.3
				c3.07,0,6.03-1.1,8.34-3.1c2.58-2.23,6.46-2.08,8.87,0.35l13.95,14.09c2.5,2.52,2.51,6.57,0.04,9.11
				c-3.22,3.31-4.99,7.68-4.99,12.3c0,2.54,0.53,5,1.59,7.31l3.15,6.89c4.13,9.05,4.1,19.38-0.07,28.35
				c-4.22,9.06-12.09,15.78-21.6,18.42c-0.5,0.14-1.1,0.28-1.83,0.42c-4.96,0.97-9.51,3.43-13.03,7v8.37
				c37.16,0.6,71.89,6.35,99.98,16.07C372.855,194.04,385.405,151.28,389.085,136.38z M379.255,288.8v-20.9
				c-27.48-22.53-83.26-36.97-143.5-36.97s-116.03,14.44-143.5,36.97v20.9c39.44-12.22,89.94-18.91,143.5-18.91
				C289.305,269.89,339.815,276.58,379.255,288.8z M380.515,335.66c-2.43-2.13-4.39-5.25-5.7-9.1c-9.93-3.05-20.61-5.75-31.9-8.05
				h-0.01c-4.3-0.89-8.68-1.72-13.14-2.48c-28.8-4.98-60.89-7.62-94.01-7.62c-7.79,0-15.51,0.15-23.15,0.44
				c-4.9,0.18-9.76,0.42-14.58,0.72c-4.36,0.27-8.68,0.59-12.95,0.95c-5.03,0.43-10,0.92-14.91,1.47
				c-26.99,3.05-51.99,7.97-73.48,14.57c-1.31,3.85-3.27,6.97-5.7,9.1c1.43,12.18,15.85,24.46,40.09,33.97
				c3.65,1.43,7.47,2.78,11.43,4.04c4.06,1.3,8.28,2.51,12.64,3.61c3.69,0.95,7.47,1.82,11.35,2.61c4.28,0.9,8.68,1.7,13.17,2.41
				h0.01c17.54,2.82,36.51,4.28,56.08,4.28c22.93,0,45.04-2.02,65-5.84c5.45-1.03,10.73-2.21,15.83-3.52h0.01
				c8.51-2.17,16.49-4.71,23.83-7.59C364.665,360.12,379.095,347.84,380.515,335.66z M373.035,312.48c0.2-4.22,1.02-8.04,2.32-11.28
				c-38.19-11.84-87.33-18.31-139.6-18.31c-52.28,0-101.42,6.47-139.61,18.31c1.31,3.24,2.12,7.06,2.33,11.28
				c38.48-11.03,86.77-17.07,137.28-17.07C286.255,295.41,334.545,301.45,373.035,312.48z M266.925,178.29
				c2.61-5.59,2.62-11.8,0.03-17.46l-3.15-6.88c-1.83-4.02-2.76-8.3-2.76-12.72c0-5.86,1.64-11.48,4.7-16.32l-6.19-6.25
				c-3.6,1.84-7.61,2.82-11.72,2.82c-4.22,0-8.38-1.06-12.08-3.02c-3.71,1.96-7.87,3.02-12.09,3.02c-4.1,0-8.12-0.98-11.72-2.82
				l-6.18,6.25c3.06,4.84,4.7,10.46,4.7,16.32c0,4.41-0.94,8.69-2.77,12.71l-3.15,6.89c-2.58,5.66-2.57,11.87,0.03,17.47
				c2.61,5.61,7.46,9.76,13.3,11.38c0.22,0.06,0.49,0.12,0.8,0.18c6.32,1.23,12.19,4.04,17.08,8.1c4.88-4.06,10.75-6.87,17.05-8.1
				c0.33-0.06,0.6-0.11,0.79-0.17c0.01,0,0.02,0,0.03-0.01C259.465,188.06,264.315,183.91,266.925,178.29z M229.255,217.99v-8.37
				c-3.53-3.57-8.08-6.03-13.05-7c-0.72-0.14-1.33-0.28-1.84-0.42c-9.48-2.64-17.36-9.35-21.57-18.42
				c-4.18-8.97-4.2-19.3-0.07-28.35l3.14-6.89c1.06-2.31,1.6-4.77,1.6-7.31c0-4.63-1.78-8.99-5-12.3c-2.47-2.54-2.45-6.59,0.04-9.11
				l13.96-14.09c2.4-2.43,6.28-2.58,8.87-0.35c2.31,2,5.27,3.1,8.33,3.1c1.97,0,3.86-0.45,5.59-1.3V87.44l-146.84,48.94
				c3.68,14.9,16.23,57.66,46.86,97.68C157.355,224.34,192.085,218.59,229.255,217.99z M81.445,260.03
				c9.08-8.05,21.05-15.16,35.19-21.13c-25.67-34.57-38.55-69.93-44.29-89.72l-57.37,98.58c9.07,8.17,34.08,29.09,64.28,40.81V264.9
				C79.255,263.04,80.045,261.27,81.445,260.03z M85.525,314.61c0-5.65-1.55-9.21-2.6-10.67c-1.05,1.46-2.6,5.02-2.6,10.67
				c0,5.64,1.55,9.2,2.6,10.66C83.975,323.81,85.525,320.25,85.525,314.61z M69.935,333.89l3.56,0.42
				c-3.82-4.29-6.17-11.3-6.17-19.7c0-6.05,1.22-11.37,3.32-15.48c-13.59-5.66-25.95-12.83-36.33-19.81L69.935,333.89z"/>
		</g>
		<g>
		</g>
	</g>
	<g style="opacity:0.72;">
		<path style="fill:#FFFFFF;" d="M185.075,310.52l-29.93,66.76c-4.36-1.1-8.58-2.31-12.64-3.61l27.66-61.68
			C175.075,311.44,180.045,310.95,185.075,310.52z"/>
		<path style="fill:#FFFFFF;" d="M212.605,308.85l-32.93,73.45h-0.01c-4.49-0.71-8.89-1.51-13.17-2.41l31.53-70.32
			C202.845,309.27,207.705,309.03,212.605,308.85z"/>
		<path style="fill:#FFFFFF;" d="M342.905,318.51l-26.31,58.71h-0.01c-5.1,1.31-10.38,2.49-15.83,3.52l29.01-64.71
			C334.225,316.79,338.605,317.62,342.905,318.51z"/>
	</g>
</g>
<g>
</g>
<g>
</g>
<g>
</g>
<g>
</g>
<g>
</g>
<g>
</g>
<g>
</g>
<g>
</g>
<g>
</g>
<g>
</g>
<g>
</g>
<g>
</g>
<g>
</g>
<g>
</g>
<g>
</g>
</svg>
