<?xml version="1.0" encoding="iso-8859-1"?>
<!-- Generator: Adobe Illustrator 19.0.0, SVG Export Plug-In . SVG Version: 6.00 Build 0)  -->
<svg xmlns="http://www.w3.org/2000/svg" xmlns:xlink="http://www.w3.org/1999/xlink" version="1.1" id="Layer_1" x="0px" y="0px" viewBox="0 0 463.02 463.02" style="enable-background:new 0 0 463.02 463.02;" xml:space="preserve" width="512" height="512">
<g>
	<path style="fill:#0071CE;" d="M207.626,168.591c-8.325-17.186-15.836-48.897-44.21-48.897c-28.373,0-48.4,23.367,4.174,67.595   L207.626,168.591z"/>
	<path style="fill:#454F58;" d="M444.862,303.045c0-35.48-28.762-64.242-64.242-64.242c-34.559,0-113.951-23.638-155.737-65.423   c-41.786-41.786-64.768,4.357-91.928,4.357c-27.161,0-50.142-20.985-85.661-20.985c-35.518,0-34.473,51.279-34.473,92.021   c0,40.741,0,54.272,0,54.272H444.862z"/>
	<path style="fill:#C3C6C8;" d="M224.882,173.38c-41.786-41.786-64.768,4.357-91.928,4.357c-27.161,0-50.142-20.985-85.661-20.985   c-27.653,0-33.142,31.085-34.217,64.078c26.574,3.768,84.781,26.672,105.105,82.215h125.001   c-14.686-59.25,17.115-72.73,43.827-60.756c21.455,9.618,40.715-2.11,42.403-12.509C293.54,219.324,251.552,200.049,224.882,173.38   z"/>
	<path style="fill:#00B3E3;" d="M132.955,177.738c-27.161,0-50.142-20.985-85.661-20.985c-12.555,0-20.53,6.42-25.608,16.504   c30.033,5.918,64.411,35.633,108.864,33.708c24.48-1.06,57.639-33.992,93.814-34.09   C182.908,131.991,160.001,177.738,132.955,177.738z"/>
	<path style="fill:#E8E8E8;" d="M437.108,297.346h-35.8c-66.147,0-265.817-16.922-326.298-16.922h-53.19   c-8.438,0-14.32,6.905-14.32,15.344v32.215c0,8.438,5.882,15.343,14.32,15.343h415.287c10.127,0,18.412-8.286,18.412-18.412v-9.156   C455.52,305.632,447.235,297.346,437.108,297.346z"/>
	<path style="fill:#0071CE;" d="M389.621,297.204c-29.316-0.629-74.753-3.306-122.727-6.345c2.492,7.871,3.945,15.984,1.783,21.016   c-2.956,6.879-16.243,20.591-27.504,31.451H383.97C388.382,329.736,391.7,313.195,389.621,297.204z"/>
	<g>
		<g>
			<path style="fill:#0071CE;" d="M173.246,241.367h-57c-4.142,0-7.5-3.358-7.5-7.5c0-4.142,3.358-7.5,7.5-7.5h57     c4.142,0,7.5,3.358,7.5,7.5C180.746,238.01,177.388,241.367,173.246,241.367z"/>
			<path style="fill:#0071CE;" d="M188.51,264.211h-57c-4.142,0-7.5-3.358-7.5-7.5c0-4.142,3.358-7.5,7.5-7.5h57     c4.142,0,7.5,3.358,7.5,7.5C196.01,260.853,192.652,264.211,188.51,264.211z"/>
		</g>
		<path style="fill:#00B3E3;" d="M106.677,319.375H56.01c-4.142,0-7.5-3.358-7.5-7.5c0-4.142,3.358-7.5,7.5-7.5h50.667    c4.142,0,7.5,3.358,7.5,7.5C114.177,316.017,110.819,319.375,106.677,319.375z"/>
		<path d="M265.343,229.946c4.142,0,7.501-3.358,7.501-7.5c0-4.142-3.359-7.5-7.501-7.5c-4.142,0-7.5,3.358-7.5,7.5    C257.843,226.588,261.202,229.946,265.343,229.946z M451.839,294.458c-4.268-35.73-34.782-63.156-71.22-63.156    c-30.435,0-108.922-21.715-150.434-63.226c-7.518-7.518-14.624-12.482-21.331-15.541c-7.201-17.064-18.36-40.343-45.438-40.342    c-16.347,0-29.023,6.592-33.908,17.634c-3.502,7.917-4.23,20.874,9.776,39.329c-2.165,0.679-4.279,1.081-6.331,1.081    c-11.266,0-21.924-4.139-34.266-8.932c-14.549-5.65-31.041-12.054-51.394-12.054c-19.043,0-31.65,11.753-37.473,34.933    c-4.531,18.04-4.515,40.967-4.501,61.194l0.001,35.295C1.996,284.672,0,289.929,0,295.767v32.216    c0,12.809,9.585,22.843,21.821,22.843h415.287c14.288,0,25.912-11.624,25.912-25.911v-9.157    C463.02,306.94,458.588,299.14,451.839,294.458z M143.226,135.897c2.375-5.368,10.111-8.703,20.191-8.703    c13.174-0.001,20.665,8.597,27.051,21.232c-13.699,0.063-25.332,6.913-35.03,12.627c-0.789,0.465-1.573,0.925-2.353,1.381    C144.141,151.461,140.552,141.941,143.226,135.897z M24.369,187.84c5.251-20.906,15.01-23.587,22.925-23.587    c17.543,0,31.992,5.611,45.964,11.037c13.175,5.116,25.62,9.949,39.696,9.949c10.989,0,20.704-5.725,30.099-11.261    c17.495-10.31,32.606-19.213,56.526,4.707c45.024,45.023,127.512,67.619,161.041,67.619c26.602,0,49.204,18.48,55.183,43.543    h-34.494c-33.572,0-102.525-4.438-169.205-8.729c-65.459-4.213-127.288-8.193-157.093-8.193h-53.19    c-0.505,0-1.004,0.023-1.5,0.057l-0.001-27.611C20.306,226.014,20.29,204.076,24.369,187.84z M238.133,335.826H21.821    c-4.686,0-6.821-4.065-6.821-7.843v-32.216c0-3.778,2.134-7.844,6.821-7.844h53.19c29.322,0,90.917,3.964,156.129,8.162    c9.982,0.643,20.013,1.288,29.972,1.922c1.811,7.523,0.914,10.352,0.676,10.907C261.104,310.503,257.393,317.043,238.133,335.826z     M378.41,335.826H259.243c13.322-14.021,15.5-19.068,16.325-20.99c1.769-4.115,2.115-9.353,1.044-15.85    c40.619,2.545,78.886,4.75,106.088,5.544C383.057,314.04,381.623,324.522,378.41,335.826z M448.02,324.915    c0,6.017-4.896,10.911-10.912,10.911h-43.163c2.781-10.968,4.046-21.338,3.778-30.996c1.232,0.01,2.433,0.016,3.585,0.016h35.8    c6.017,0,10.912,4.895,10.912,10.912V324.915z M217.487,200.569c4.143,0,7.5-3.358,7.5-7.5c0-4.142-3.357-7.5-7.5-7.5    c-4.142,0-7.5,3.358-7.5,7.5C209.987,197.211,213.345,200.569,217.487,200.569z M240.173,216.289c4.142,0,7.5-3.358,7.5-7.5    c0-4.142-3.358-7.5-7.5-7.5c-4.143,0-7.5,3.358-7.5,7.5C232.673,212.931,236.031,216.289,240.173,216.289z"/>
	</g>
</g>















</svg>
