<?xml version="1.0" encoding="utf-8"?>

<svg version="1.1" id="Icons" xmlns="http://www.w3.org/2000/svg" xmlns:xlink="http://www.w3.org/1999/xlink" x="0px" y="0px"
	 viewBox="0 0 32 32" style="enable-background:new 0 0 32 32;" xml:space="preserve">
<path d="M29,25H3c-0.6,0-1,0.4-1,1s0.4,1,1,1h26c0.6,0,1-0.4,1-1S29.6,25,29,25z"/>
<path d="M25.6,15.6l-5.5-0.7C16.6,14.4,14,11.5,14,8c0-0.6-0.4-1-1-1H3C2.4,7,2,7.4,2,8v15c0,0.6,0.4,1,1,1h26c0.6,0,1-0.4,1-1v-2.5
	C30,18,28.1,15.9,25.6,15.6z M8,18c-1.7,0-3-1.3-3-3s1.3-3,3-3s3,1.3,3,3S9.7,18,8,18z M28,22h-7c0-1.6,0.7-3.1,1.9-4.2l0.6-0.5
	l1.9,0.2c1.5,0.2,2.6,1.5,2.6,3V22z"/>
</svg>
