<?xml version="1.0" encoding="iso-8859-1"?>
<!-- Generator: Adobe Illustrator 18.0.0, SVG Export Plug-In . SVG Version: 6.00 Build 0)  -->
<!DOCTYPE svg PUBLIC "-//W3C//DTD SVG 1.1//EN" "http://www.w3.org/Graphics/SVG/1.1/DTD/svg11.dtd">
<svg version="1.1" id="Capa_1" xmlns="http://www.w3.org/2000/svg" xmlns:xlink="http://www.w3.org/1999/xlink" x="0px" y="0px"
	 viewBox="0 0 87.239 87.239" style="enable-background:new 0 0 87.239 87.239;" xml:space="preserve">
<g>
	<g>
		<rect x="18.441" y="4.946" style="fill:#91ADB8;" width="50.356" height="77.347"/>
		<rect x="18.441" y="25.83" style="fill:#FD912C;" width="50.356" height="35.577"/>
		<path style="fill:#C0D2D8;" d="M66.325,0H20.914c-1.366,0-2.473,1.107-2.473,2.473l0,0c0,1.366,1.107,2.473,2.473,2.473h45.411
			c1.366,0,2.473-1.107,2.473-2.473l0,0C68.798,1.107,67.691,0,66.325,0z"/>
		<path style="fill:#C0D2D8;" d="M66.325,82.292H20.914c-1.366,0-2.473,1.108-2.473,2.474l0,0c0,1.365,1.107,2.473,2.473,2.473
			h45.411c1.366,0,2.473-1.107,2.473-2.473l0,0C68.798,83.4,67.691,82.292,66.325,82.292z"/>
		<circle style="fill:#D12200;" cx="42.792" cy="43.578" r="12.684"/>
		<polygon style="fill:#219D92;" points="42.839,34.776 45.437,32.178 46.001,35.563 49.631,39.193 44.191,37.703 37.608,37.703 		
			"/>
	</g>
	<g style="opacity:0.5;">
		<path style="fill:#C0D2D8;" d="M68.798,2.473C68.798,1.107,67.691,0,66.325,0H43.619v87.239h22.706
			c1.366,0,2.473-1.107,2.473-2.473l0,0c0-1.366-1.107-2.474-2.473-2.474h2.473V61.408V25.83V4.946h-2.473
			C67.691,4.946,68.798,3.838,68.798,2.473z"/>
	</g>
</g>
<g>
</g>
<g>
</g>
<g>
</g>
<g>
</g>
<g>
</g>
<g>
</g>
<g>
</g>
<g>
</g>
<g>
</g>
<g>
</g>
<g>
</g>
<g>
</g>
<g>
</g>
<g>
</g>
<g>
</g>
</svg>
