<?xml version="1.0" encoding="iso-8859-1"?>
<!-- Generator: Adobe Illustrator 19.0.0, SVG Export Plug-In . SVG Version: 6.00 Build 0)  -->
<svg version="1.1" id="Layer_1" xmlns="http://www.w3.org/2000/svg" xmlns:xlink="http://www.w3.org/1999/xlink" x="0px" y="0px"
	 viewBox="0 0 512.001 512.001" style="enable-background:new 0 0 512.001 512.001;" xml:space="preserve">
<path style="fill:#8A8791;" d="M255.995,192.551c-17.524,104.597-33.586,207.117-52.572,311.078H85.131
	c-5.836-38.988-8.762-76.525-14.6-115.513c-1.105-8.717-2.11-17.446-3.081-26.163c-2.869-25.929-5.335-51.835-8.673-77.675
	l9.666-164.323l16.698-68.79h341.717l16.698,68.79l9.666,164.323c-3.337,25.839-5.804,51.735-8.673,77.663
	c-0.96,8.717-1.976,17.446-3.081,26.174c-5.836,38.988-8.762,76.525-14.6,115.513H308.578c-6.876-37.66-13.372-75.13-19.689-112.588
	l-6.809-44.111c-2.132-12.803-4.286-25.661-6.451-38.53c-1.072-6.44-2.154-12.881-3.248-19.332
	c-3.27-19.421-6.552-38.865-9.856-58.253c-2.11-12.412-4.23-24.801-6.34-37.135L255.995,192.551z"/>
<path style="fill:#787780;" d="M256.185,193.678l-0.19-142.513h170.864l16.698,68.79l9.666,164.323
	c-3.337,25.839-5.804,51.735-8.673,77.663c-0.96,8.717-1.976,17.446-3.081,26.174c-5.836,38.988-8.762,76.525-14.6,115.513H308.578
	c-6.876-37.66-13.372-75.13-19.689-112.588l-6.809-44.111c-1.261-7.523-2.511-15.068-3.784-22.625
	c-3.003-17.959-6.027-35.985-9.074-54.012C264.891,244.688,260.538,219.083,256.185,193.678z"/>
<path style="fill:#F5F5F5;" d="M444.55,361.942c-0.96,8.717-1.976,17.446-3.081,26.174c-5.836,38.988-8.762,76.525-14.6,115.513
	h-67.495v-82.563c0-32.659,26.777-59.135,59.805-59.135h24.377L444.55,361.942z"/>
<rect x="84.305" y="8.371" style="fill:#8A8791;" width="171.69" height="42.794"/>
<g>
	<path style="fill:#F5F5F5;" d="M152.626,421.065v82.563H85.131c-5.836-38.988-8.762-76.525-14.6-115.513
		c-1.105-8.717-2.11-17.446-3.081-26.163l0.993-0.022h24.377C125.849,361.93,152.626,388.406,152.626,421.065z"/>
	<path style="fill:#F5F5F5;" d="M148.922,217.253v-58.904c0-21.428-17.57-38.799-39.242-38.799H77.863
		c-22.626,0-40.565,18.867-39.168,41.195l5.987,95.668c1.28,20.458,18.436,36.403,39.168,36.403h25.829
		c20.423,0,37.195-15.426,39.064-35.135"/>
	<path style="fill:#F5F5F5;" d="M363.08,254.018c0,21.428,17.57,38.799,39.242,38.799h25.829c20.732,0,37.887-15.945,39.168-36.403
		l5.987-95.668c1.397-22.328-16.542-41.195-39.168-41.195h-31.817c-21.673,0-39.242,17.371-39.242,38.799v47.835"/>
</g>
<rect x="255.995" y="8.371" style="fill:#787780;" width="171.69" height="42.794"/>
<g>
	<path style="fill:#3C3A41;" d="M468.996,126.216c-5.079-5.407-11.352-9.505-18.227-12.049l-14.881-61.296
		c0.114-0.55,0.174-1.121,0.174-1.706V8.371c0-4.623-3.747-8.371-8.371-8.371h-171.69H84.31c-4.624,0-8.371,3.748-8.371,8.371
		v42.794c0,0.585,0.061,1.156,0.175,1.708l-14.881,61.294c-6.876,2.543-13.149,6.642-18.227,12.048
		c-8.984,9.563-13.482,22.012-12.666,35.052l5.986,95.669c0.762,12.176,6.185,23.051,14.468,30.977
		c2.136,16.834,3.96,33.965,5.717,50.567c0.861,8.128,1.72,16.259,2.621,24.398c0.803,7.202,1.88,16.697,3.095,26.289
		c0.008,0.063,0.017,0.125,0.026,0.186c1.087,7.257,2.078,14.519,3.006,21.75c1.546,12.051,2.917,24.016,4.257,35.731
		c2.162,18.878,4.397,38.399,7.337,58.032c0.614,4.099,4.134,7.132,8.279,7.132h67.495h50.798c4.043,0,7.51-2.89,8.235-6.867
		c13.41-73.425,25.599-147.578,37.386-219.288c2.318-14.103,4.675-28.433,7.055-42.851c2.686,15.809,5.36,31.64,8.024,47.46
		l3.248,19.334c2.165,12.865,4.318,25.719,6.449,38.516c0.682,4.095,4.229,6.997,8.249,6.997c0.457,0,0.92-0.037,1.385-0.115
		c4.561-0.759,7.641-5.072,6.882-9.633c-2.133-12.807-4.288-25.67-6.454-38.543l-3.249-19.334
		c-3.27-19.427-6.552-38.876-9.858-58.265c-1.742-10.259-3.49-20.509-5.249-30.777l89.181-24.325v31.875
		c0,4.623,3.747,8.371,8.371,8.371c4.624,0,8.371-3.748,8.371-8.371V158.35c0-16.778,13.849-30.428,30.872-30.428h31.815
		c8.698,0,16.744,3.465,22.655,9.758c5.786,6.159,8.683,14.165,8.159,22.543l-5.986,95.668
		c-1.002,16.012-14.537,28.555-30.813,28.555h-25.829c-17.023,0-30.872-13.65-30.872-30.427c0-4.623-3.747-8.371-8.371-8.371
		c-4.624,0-8.371,3.748-8.371,8.371c0,26.009,21.36,47.17,47.615,47.17h25.829c5.178,0,10.171-0.839,14.855-2.37
		c-1.497,12.737-2.854,25.489-4.171,37.94c-0.593,5.6-1.2,11.205-1.806,16.81l-17.85-0.009c-37.593,0-68.176,30.283-68.176,67.506
		v74.192h-35.441c-5.799-31.958-11.839-66.592-18.42-105.61c-0.768-4.558-5.093-7.636-9.647-6.862
		c-4.56,0.769-7.631,5.089-6.862,9.647c7.068,41.903,13.514,78.767,19.709,112.7c0.725,3.977,4.191,6.868,8.235,6.868h50.797h67.495
		c4.144,0,7.665-3.033,8.279-7.131c0.367-2.456,0.724-4.909,1.072-7.359c2.429-17.154,4.376-34.172,6.268-50.695
		c1.341-11.711,2.71-23.67,4.256-35.716c0.928-7.228,1.918-14.487,3.004-21.742c0.01-0.063,0.019-0.125,0.026-0.188
		c0.209-1.645,0.416-3.315,0.623-4.999c0.822-6.681,1.636-13.697,2.473-21.311c0-0.003,0-0.008,0-0.011
		c0.897-8.112,1.756-16.221,2.614-24.326c1.759-16.614,3.584-33.758,5.723-50.607c8.283-7.926,13.704-18.8,14.467-30.976
		l5.986-95.668C482.478,148.228,477.98,135.779,468.996,126.216z M419.319,42.794H369.89c-0.015,0-0.03,0-0.046,0H355.28V16.743
		h64.038v26.051H419.319z M256.001,161.288c-3.062-8.432-7.16-18.113-12.616-28.364c-12.067-22.678-32.818-51.561-66.839-73.387
		h79.455h79.455c-34.021,21.827-54.772,50.708-66.84,73.387C263.161,143.175,259.062,152.857,256.001,161.288z M157.256,156.944
		c-0.755-25.361-21.8-45.765-47.578-45.765H79.186l12.538-51.642h48.833c38.01,15.839,67.536,42.982,87.761,80.715
		c8.557,15.966,13.578,30.612,16.361,40.538L157.256,156.944z M264.372,16.743h74.166v26.051h-74.166V16.743L264.372,16.743z
		 M247.629,42.794h-74.167V16.743h74.167V42.794z M92.681,16.743h64.038v26.051h-14.573c-0.01,0-0.02,0-0.03,0H92.681V16.743z
		 M92.372,495.257c-2.402-16.967-4.341-33.892-6.222-50.326c-2.16-18.856-4.392-38.353-7.325-57.963
		c-0.171-1.347-0.338-2.692-0.503-4.03c-0.044-0.353-0.086-0.702-0.128-1.054c-0.123-1.005-0.244-2.006-0.364-2.997
		c-0.042-0.353-0.085-0.703-0.126-1.053c-0.128-1.079-0.256-2.151-0.38-3.205c-0.021-0.182-0.044-0.365-0.064-0.547
		c-0.151-1.285-0.297-2.549-0.439-3.783h16c28.36,0,51.433,22.772,51.433,50.764v74.192H92.372V495.257z M196.439,495.257h-35.442
		v-74.192c0-37.223-30.583-67.506-68.176-67.506H74.968c-0.607-5.614-1.214-11.229-1.809-16.84
		c-1.316-12.439-2.671-25.179-4.166-37.901c4.686,1.531,9.677,2.37,14.854,2.37h25.83c24.713,0,45.089-18.364,47.398-42.716
		c0.436-4.603-2.942-8.688-7.544-9.124c-4.602-0.434-8.687,2.941-9.125,7.543c-1.489,15.708-14.7,27.554-30.729,27.554H83.849
		c-16.276,0-29.81-12.542-30.812-28.554l-5.986-95.668c-0.525-8.379,2.373-16.385,8.159-22.544
		c5.91-6.292,13.956-9.756,22.654-9.756h31.817c17.023,0,30.871,13.65,30.871,30.428v58.904c0,4.623,3.747,8.371,8.371,8.371
		s8.371-3.748,8.371-8.371v-42.945l89.198,24.329c-4.737,28.354-9.423,56.853-13.966,84.49
		C221.117,352.529,209.331,424.222,196.439,495.257z M354.744,156.944l-87.406,23.841c7.776-27.553,32.991-91.592,104.104-121.249
		h48.834l12.538,51.642h-30.492C376.543,111.179,355.499,131.583,354.744,156.944z M419.629,495.257h-51.883v-74.192
		c0-27.991,23.074-50.764,51.433-50.764h16.005c-0.016,0.132-0.03,0.266-0.046,0.397c-0.145,1.258-0.29,2.504-0.434,3.734
		c-0.034,0.282-0.067,0.559-0.099,0.84c-0.122,1.034-0.244,2.06-0.366,3.075c-0.047,0.392-0.094,0.78-0.142,1.17
		c-0.116,0.959-0.232,1.912-0.348,2.857c-0.036,0.294-0.071,0.587-0.108,0.88c-0.155,1.25-0.309,2.49-0.464,3.718
		c-2.933,19.602-5.165,39.09-7.323,57.938C423.971,461.35,422.034,478.283,419.629,495.257z"/>
	<path style="fill:#3C3A41;" d="M443.499,264.411h-39.03c-4.624,0-8.371-3.748-8.371-8.371c0-4.623,3.747-8.371,8.371-8.371H443.5
		c4.624,0,8.371,3.748,8.371,8.371C451.871,260.663,448.123,264.411,443.499,264.411z"/>
	<path style="fill:#3C3A41;" d="M443.499,231.174h-39.03c-4.624,0-8.371-3.748-8.371-8.371c0-4.623,3.747-8.371,8.371-8.371H443.5
		c4.624,0,8.371,3.748,8.371,8.371C451.871,227.426,448.123,231.174,443.499,231.174z"/>
	<path style="fill:#3C3A41;" d="M443.499,197.937h-39.03c-4.624,0-8.371-3.748-8.371-8.371s3.747-8.371,8.371-8.371H443.5
		c4.624,0,8.371,3.748,8.371,8.371S448.123,197.937,443.499,197.937z"/>
	<path style="fill:#3C3A41;" d="M443.499,164.699h-39.03c-4.624,0-8.371-3.748-8.371-8.371c0-4.623,3.747-8.371,8.371-8.371H443.5
		c4.624,0,8.371,3.748,8.371,8.371C451.871,160.951,448.123,164.699,443.499,164.699z"/>
	<path style="fill:#3C3A41;" d="M112.896,264.411H73.863c-4.624,0-8.371-3.748-8.371-8.371c0-4.623,3.747-8.371,8.371-8.371h39.033
		c4.624,0,8.371,3.748,8.371,8.371C121.267,260.663,117.52,264.411,112.896,264.411z"/>
	<path style="fill:#3C3A41;" d="M112.896,231.174H73.863c-4.624,0-8.371-3.748-8.371-8.371c0-4.623,3.747-8.371,8.371-8.371h39.033
		c4.624,0,8.371,3.748,8.371,8.371C121.267,227.426,117.52,231.174,112.896,231.174z"/>
	<path style="fill:#3C3A41;" d="M112.896,197.937H73.863c-4.624,0-8.371-3.748-8.371-8.371s3.747-8.371,8.371-8.371h39.033
		c4.624,0,8.371,3.748,8.371,8.371S117.52,197.937,112.896,197.937z"/>
	<path style="fill:#3C3A41;" d="M112.896,164.699H73.863c-4.624,0-8.371-3.748-8.371-8.371c0-4.623,3.747-8.371,8.371-8.371h39.033
		c4.624,0,8.371,3.748,8.371,8.371C121.267,160.951,117.52,164.699,112.896,164.699z"/>
</g>
<g>
</g>
<g>
</g>
<g>
</g>
<g>
</g>
<g>
</g>
<g>
</g>
<g>
</g>
<g>
</g>
<g>
</g>
<g>
</g>
<g>
</g>
<g>
</g>
<g>
</g>
<g>
</g>
<g>
</g>
</svg>
