<?xml version="1.0" encoding="iso-8859-1"?>
<!-- Generator: Adobe Illustrator 19.0.0, SVG Export Plug-In . SVG Version: 6.00 Build 0)  -->
<svg version="1.1" id="Layer_1" xmlns="http://www.w3.org/2000/svg" xmlns:xlink="http://www.w3.org/1999/xlink" x="0px" y="0px"
	 viewBox="0 0 511.992 511.992" style="enable-background:new 0 0 511.992 511.992;" xml:space="preserve">
<g>
	<path style="fill:#ED5564;" d="M202.661,357.337h-63.999c-5.891,0-10.664,4.766-10.664,10.671v106.655
		c0,5.89,4.773,10.671,10.664,10.671h63.999c5.89,0,10.671-4.781,10.671-10.671V368.008
		C213.332,362.102,208.551,357.337,202.661,357.337z"/>
	<path style="fill:#ED5564;" d="M255.996,240.002c-2.727,0-5.461-1.047-7.539-3.125l-32-31.999c-4.172-4.172-4.172-10.922,0-15.094
		c4.164-4.156,10.914-4.156,15.078,0l32,31.999c4.172,4.172,4.172,10.922,0,15.094C261.457,238.955,258.723,240.002,255.996,240.002
		z"/>
</g>
<path style="fill:#AAB2BC;" d="M287.996,272.01h-64c-5.891,0-10.664-4.789-10.664-10.679c0-5.891,4.773-10.672,10.664-10.672h59.578
	l15.078-15.078v-38.249c0-5.891,4.781-10.672,10.688-10.672c5.875,0,10.654,4.781,10.654,10.672v42.671
	c0,2.828-1.125,5.531-3.123,7.531l-21.344,21.343C293.527,270.877,290.824,272.01,287.996,272.01z"/>
<path style="fill:#434A54;" d="M223.996,186.66H117.334c-5.891,0-10.672,4.781-10.672,10.672v170.676
	c0,5.891,4.781,10.656,10.672,10.656h106.662c5.891,0,10.664-4.766,10.664-10.656V197.331
	C234.661,191.441,229.887,186.66,223.996,186.66z"/>
<path style="fill:#DA4453;" d="M170.662,400.008c-5.891,0-10.664,4.766-10.664,10.656v74.67h21.335v-74.67
	C181.333,404.773,176.552,400.008,170.662,400.008z"/>
<path style="fill:#AAB2BC;" d="M501.336,101.333h-85.342c-5.891,0-10.656,4.766-10.656,10.671v32
	c0,5.891,4.766,10.656,10.656,10.656h85.342c5.875,0,10.656-4.765,10.656-10.656v-32
	C511.992,106.099,507.211,101.333,501.336,101.333z"/>
<g>
	<path style="fill:#434A54;" d="M415.994,80.005h-32c-5.891,0-10.656,4.766-10.656,10.656v74.67c0,5.891,4.766,10.672,10.656,10.672
		h32c5.891,0,10.656-4.781,10.656-10.672v-74.67C426.65,84.771,421.885,80.005,415.994,80.005z"/>
	<path style="fill:#434A54;" d="M74.663,26.663H32c-2.828,0-5.539,1.125-7.539,3.125L3.125,51.115c-2,2-3.125,4.718-3.125,7.546
		v10.672c0,5.891,4.773,10.672,10.664,10.672h63.999c5.891,0,10.672-4.781,10.672-10.672V37.334
		C85.335,31.444,80.554,26.663,74.663,26.663z"/>
	<path style="fill:#434A54;" d="M391.416,29.678c-2.078-2.016-4.859-3.094-7.766-3.016c-0.5,0.031-12.625,0.453-24.875,5.234
		c-18.125,7.078-28.125,20.375-28.125,37.437c0,5.891,4.781,10.672,10.688,10.672h42.656c5.891,0,10.656-4.781,10.656-10.672V37.334
		C394.65,34.444,393.494,31.678,391.416,29.678z"/>
</g>
<path style="fill:#AAB2BC;" d="M319.994,26.663c-5.889,0-10.654,4.781-10.654,10.672v31.999c0,5.891,4.766,10.672,10.654,10.672
	c5.891,0,10.656-4.781,10.656-10.672v-32C330.65,31.444,325.885,26.663,319.994,26.663z"/>
<path style="fill:#656D78;" d="M383.994,58.662H10.664C4.773,58.662,0,63.443,0,69.334v85.327c0,5.891,4.773,10.671,10.664,10.671
	h18.82l83.077,41.531c1.484,0.75,3.117,1.141,4.773,1.141H330.65c2.844,0,5.562-1.125,7.562-3.125l18.203-18.219h27.578
	c5.891,0,10.656-4.766,10.656-10.656V69.333C394.65,63.443,389.885,58.662,383.994,58.662z"/>
<g>
	<path style="fill:#434A54;" d="M309.34,122.661H117.334c-5.891,0-10.672-4.766-10.672-10.656c0-5.906,4.781-10.671,10.672-10.671
		h192.005c5.875,0,10.654,4.766,10.654,10.671C319.994,117.895,315.215,122.661,309.34,122.661z"/>
	<path style="fill:#434A54;" d="M309.34,165.331H117.334c-5.891,0-10.672-4.781-10.672-10.671s4.781-10.656,10.672-10.656h192.005
		c5.875,0,10.654,4.766,10.654,10.656C319.994,160.551,315.215,165.331,309.34,165.331z"/>
</g>
<g>
	<path style="fill:#656D78;" d="M117.334,240.002c0-5.906-4.781-10.672-10.672-10.672v21.328
		C112.553,250.659,117.334,245.893,117.334,240.002z"/>
	<path style="fill:#656D78;" d="M117.334,282.666c0-5.891-4.781-10.656-10.672-10.656v21.328
		C112.553,293.338,117.334,288.557,117.334,282.666z"/>
	<path style="fill:#656D78;" d="M223.996,282.666c0,5.891,4.773,10.672,10.664,10.672V272.01
		C228.77,272.01,223.996,276.775,223.996,282.666z"/>
	<path style="fill:#656D78;" d="M223.996,240.002c0,5.891,4.773,10.656,10.664,10.656V229.33
		C228.77,229.33,223.996,234.096,223.996,240.002z"/>
	<path style="fill:#656D78;" d="M202.661,336.009c0-5.905-4.773-10.671-10.664-10.671h-42.663c-5.891,0-10.672,4.766-10.672,10.671
		v42.655h63.999L202.661,336.009L202.661,336.009z"/>
</g>
<path style="fill:#ED5564;" d="M53.335,112.004c0,5.875-4.781,10.656-10.672,10.656c-5.89,0-10.664-4.781-10.664-10.656
	c0-5.906,4.773-10.671,10.664-10.671C48.554,101.333,53.335,106.099,53.335,112.004z"/>
<g>
</g>
<g>
</g>
<g>
</g>
<g>
</g>
<g>
</g>
<g>
</g>
<g>
</g>
<g>
</g>
<g>
</g>
<g>
</g>
<g>
</g>
<g>
</g>
<g>
</g>
<g>
</g>
<g>
</g>
</svg>
