<?xml version="1.0" encoding="iso-8859-1"?>
<!-- Generator: Adobe Illustrator 19.0.0, SVG Export Plug-In . SVG Version: 6.00 Build 0)  -->
<svg version="1.1" id="Layer_1" xmlns="http://www.w3.org/2000/svg" xmlns:xlink="http://www.w3.org/1999/xlink" x="0px" y="0px"
	 viewBox="0 0 511.999 511.999" style="enable-background:new 0 0 511.999 511.999;" xml:space="preserve">
<path style="fill:#E6E6E6;" d="M401.513,511.994h-68.715c0-9.999,8.115-18.115,18.115-18.115h10.808V368.526h10.869v125.353h10.808
	C393.41,493.879,401.513,501.995,401.513,511.994z"/>
<path style="fill:#CCCCCC;" d="M372.59,368.526v22.667c-1.787,0.181-3.599,0.278-5.434,0.278s-3.647-0.097-5.434-0.278v-22.667
	H372.59z"/>
<rect x="315.279" y="158.986" style="fill:#F2F2F2;" width="103.748" height="131.5"/>
<path style="fill:#F97E62;" d="M367.158,374.568L367.158,374.568c-28.649,0-51.874-23.224-51.874-51.874v-93.642h103.747v93.642
	C419.031,351.344,395.807,374.568,367.158,374.568z"/>
<rect x="315.279" y="158.986" style="fill:#E6E6E6;" width="26.87" height="131.5"/>
<path style="fill:#E86B56;" d="M367.164,374.564c-28.645,0-51.88-23.223-51.88-51.868v-93.641h26.87v93.641
	C342.154,351.341,353.349,374.564,367.164,374.564z"/>
<path style="fill:#F97E62;" d="M214.953,77.915V11.347C214.953,5.081,209.872,0,203.606,0h-43.421
	c-6.266,0-11.347,5.081-11.347,11.347v133.292c0,6.619-3.711,12.608-9.52,15.783c-27.613,15.087-46.349,44.378-46.349,78.062v250.31
	c0,12.815,10.389,23.205,23.205,23.205h131.442c12.815,0,23.205-10.389,23.205-23.205v-250.31c0-33.684-18.737-62.975-46.349-78.062
	c-5.809-3.174-9.52-9.162-9.52-15.783v-36.534"/>
<path style="fill:#E86B56;" d="M137.546,488.795V238.484c0-33.684,9.345-62.974,23.115-78.062c2.897-3.174,4.747-9.164,4.747-15.783
	V0h-5.224c-6.266,0-11.347,5.081-11.347,11.347v133.292c0,6.619-3.711,12.608-9.52,15.783
	c-27.613,15.087-46.349,44.378-46.349,78.062v250.31c0,12.815,10.389,23.205,23.205,23.205h32.944
	C142.727,512,137.546,501.611,137.546,488.795z"/>
<path style="fill:#E6E6E6;" d="M214.957,11.342v39.852h-66.118V11.342c0-6.268,5.084-11.34,11.352-11.34h43.415
	C209.872,0.002,214.957,5.075,214.957,11.342z"/>
<polyline style="fill:#F2F2F2;" points="157.375,396.127 270.821,396.127 270.821,276.21 92.968,276.21 92.968,396.127 
	127.184,396.127 "/>
<polyline style="fill:#E6E6E6;" points="108.767,396.127 136.595,396.127 136.595,276.21 92.968,276.21 92.968,396.127 
	101.361,396.127 "/>
<g>
	<rect x="122.721" y="304.748" style="fill:#808080;" width="118.349" height="18.115"/>
	<rect x="122.721" y="340.977" style="fill:#808080;" width="118.349" height="18.115"/>
</g>
<path style="fill:#CCCCCC;" d="M165.407,0.002v51.192h-16.569V11.342c0-6.268,5.084-11.34,11.352-11.34
	C160.19,0.002,165.407,0.002,165.407,0.002z"/>
<g>
</g>
<g>
</g>
<g>
</g>
<g>
</g>
<g>
</g>
<g>
</g>
<g>
</g>
<g>
</g>
<g>
</g>
<g>
</g>
<g>
</g>
<g>
</g>
<g>
</g>
<g>
</g>
<g>
</g>
</svg>
