<?xml version="1.0" encoding="iso-8859-1"?>
<!-- Generator: Adobe Illustrator 19.0.0, SVG Export Plug-In . SVG Version: 6.00 Build 0)  -->
<svg version="1.1" id="Layer_1" xmlns="http://www.w3.org/2000/svg" xmlns:xlink="http://www.w3.org/1999/xlink" x="0px" y="0px"
	 viewBox="0 0 512.001 512.001" style="enable-background:new 0 0 512.001 512.001;" xml:space="preserve">
<path style="fill:#CCCCCE;" d="M178.695,431.113c-8.849,8.851-8.849,23.201,0,32.051c8.851,8.851,23.202,8.851,32.052,0
	l96.154-96.154l-32.05-32.054L178.695,431.113z"/>
<path style="fill:#E07188;" d="M419.082,254.828c13.275-13.277,13.275-34.802,0-48.078l-80.13-80.128h-48.077l-272.44,272.44
	c-13.275,13.274-13.275,34.799,0,48.076c13.278,13.277,34.802,13.277,48.079,0l144.232-144.232l24.039,8.014l16.027-16.028
	l64.103,64.105L419.082,254.828z"/>
<path style="fill:#EDEDED;" d="M419.082,238.801l76.121-76.121c11.065-11.063,11.065-29.001,0-40.063L423.088,50.5
	c-11.065-11.066-29.001-11.065-40.064-0.001c-11.065,11.065-11.065,29.001,0,40.064l52.886,52.885l-52.886,52.885"/>
<path style="fill:#DBDBDB;" d="M495.204,122.616l-36.056-36.059l-40.064,40.064l16.828,16.828l-52.886,52.885l36.058,42.468
	l76.121-76.121C506.268,151.617,506.268,133.679,495.204,122.616z"/>
<path style="fill:#E02753;" d="M419.082,254.828c13.275-13.277,13.275-34.802,0-48.078l-40.064-40.063l-112.18,112.18l64.103,64.104
	L419.082,254.828z"/>
<g>
	<circle style="fill:#EDEDED;" cx="314.915" cy="150.659" r="33.996"/>
	
		<rect x="246.533" y="264.619" transform="matrix(0.7071 -0.7071 0.7071 0.7071 -150.679 290.1168)" style="fill:#EDEDED;" width="56.658" height="124.651"/>
</g>
<rect x="254.531" y="283.975" transform="matrix(0.7071 -0.7071 0.7071 0.7071 -154.0099 298.1222)" style="fill:#DBDBDB;" width="56.658" height="101.986"/>
<g>
	<path style="fill:#2E2D31;" d="M501.214,116.605l-72.116-72.117c-6.957-6.957-16.206-10.787-26.043-10.787
		c-9.838,0-19.086,3.831-26.04,10.787c-6.958,6.956-10.788,16.205-10.788,26.042s3.83,19.086,10.787,26.041l46.877,46.877
		l-28.045,28.044l-50.882-50.882c-1.004-1.003-2.049-1.95-3.131-2.839c-7.574-6.224-16.986-9.608-26.918-9.608
		c-9.934,0-19.345,3.384-26.92,9.608c-1.082,0.888-2.127,1.836-3.131,2.839L12.425,393.05
		c-16.567,16.568-16.567,43.528,0.001,60.098c8.026,8.026,18.698,12.446,30.049,12.446s22.021-4.421,30.049-12.447l138.223-138.223
		l36.057,36.058l-74.12,74.119c-5.885,5.886-9.127,13.712-9.127,22.035s3.241,16.149,9.127,22.035
		c5.886,5.886,13.712,9.128,22.036,9.128s16.15-3.241,22.036-9.128l74.117-74.119l2.005,2.003c1.594,1.594,3.755,2.49,6.01,2.49
		c2.254,0,4.415-0.895,6.01-2.49l40.064-40.064c3.319-3.319,3.319-8.701,0-12.019l-2.004-2.005l82.133-82.133
		c7.88-7.88,12.004-18.112,12.388-28.457c0.145-0.127,0.293-0.252,0.432-0.39l63.3-63.302c6.958-6.956,10.788-16.205,10.788-26.042
		C512,132.809,508.171,123.561,501.214,116.605z M332.945,168.687c-4.817,4.817-11.22,7.469-18.029,7.469h-0.001
		c-6.811-0.001-13.213-2.653-18.028-7.468c-9.942-9.942-9.942-26.117-0.002-36.057c0.602-0.602,1.229-1.171,1.879-1.703
		c4.545-3.734,10.192-5.765,16.153-5.765c5.108,0,9.987,1.491,14.139,4.269c1.384,0.926,2.686,1.994,3.89,3.199
		C342.884,142.573,342.884,158.747,332.945,168.687z M278.855,383.035l-74.118,74.119c-2.674,2.675-6.233,4.149-10.016,4.149
		s-7.342-1.473-10.016-4.149c-2.675-2.675-4.149-6.233-4.149-10.016c0-3.784,1.473-7.341,4.149-10.016l74.119-74.119
		L278.855,383.035z M298.889,379.029l-76.123-76.124l28.046-28.046l76.122,76.124L298.889,379.029z M413.073,248.818L330.94,330.95
		l-74.118-74.119c-1.594-1.594-3.757-2.49-6.01-2.49c-2.254,0-4.415,0.895-6.01,2.49l-40.064,40.064l-0.001,0.001L60.506,441.127
		c-4.817,4.816-11.22,7.469-18.03,7.469s-13.213-2.653-18.029-7.468c-9.94-9.942-9.94-26.117,0-36.058l248.416-248.418
		c1.244,8.807,5.244,17.297,12.004,24.057c8.025,8.025,18.695,12.445,30.047,12.446c0.001,0,0.001,0,0.001,0
		c11.35,0,22.023-4.421,30.049-12.447c6.758-6.758,10.757-15.248,12.002-24.054l56.108,56.107
		C423.013,222.701,423.013,238.876,413.073,248.818z M489.193,156.67l-55.809,55.809c-2.023-4.246-4.782-8.227-8.292-11.738
		l-17.228-17.228l34.056-34.055c1.593-1.593,2.489-3.755,2.489-6.009c0-2.254-0.895-4.416-2.489-6.009l-52.887-52.886
		c-3.745-3.745-5.808-8.724-5.808-14.022c0-5.298,2.062-10.276,5.809-14.023c3.745-3.745,8.724-5.808,14.021-5.808
		c5.298,0,10.277,2.062,14.023,5.809l72.117,72.117c3.745,3.745,5.808,8.724,5.808,14.021
		C495.002,147.944,492.939,152.923,489.193,156.67z"/>
	<path style="fill:#2E2D31;" d="M220.761,232.792L36.466,417.09c-3.319,3.319-3.319,8.701,0,12.02c1.66,1.659,3.836,2.49,6.01,2.49
		c2.175,0,4.35-0.829,6.01-2.49l184.294-184.298c3.319-3.319,3.319-8.701,0-12.019C229.461,229.474,224.081,229.474,220.761,232.792
		z"/>
</g>
<g>
</g>
<g>
</g>
<g>
</g>
<g>
</g>
<g>
</g>
<g>
</g>
<g>
</g>
<g>
</g>
<g>
</g>
<g>
</g>
<g>
</g>
<g>
</g>
<g>
</g>
<g>
</g>
<g>
</g>
</svg>
