<?xml version="1.0" encoding="iso-8859-1"?>
<!-- Generator: Adobe Illustrator 19.0.0, SVG Export Plug-In . SVG Version: 6.00 Build 0)  -->
<svg version="1.1" id="Layer_1" xmlns="http://www.w3.org/2000/svg" xmlns:xlink="http://www.w3.org/1999/xlink" x="0px" y="0px"
	 viewBox="0 0 512 512" style="enable-background:new 0 0 512 512;" xml:space="preserve">
<path style="fill:#DCB991;" d="M350.063,8.017H161.937c-4.722,0-8.551,3.829-8.551,8.551v42.756h205.228V16.568
	C358.614,11.845,354.785,8.017,350.063,8.017z"/>
<path style="fill:#F5DCB4;" d="M153.231,495.59c0.087,4.66,3.889,8.393,8.55,8.393h68.565c4.722,0,8.551-3.829,8.551-8.551V161.937
	c0-9.446,7.656-17.102,17.102-17.102l0,0l0,0c9.446,0,17.102,7.656,17.102,17.102v333.495c0,4.722,3.829,8.551,8.551,8.551h68.566
	c4.661,0,8.464-3.733,8.55-8.393l8.073-435.95c0.177-9.568-7.53-17.419-17.099-17.419H162.257c-9.569,0-17.277,7.851-17.099,17.419
	L153.231,495.59z"/>
<g>
	<path style="fill:#DCB991;" d="M170.489,264.551h-25.653c-4.722,0-8.551-3.829-8.551-8.551v-85.511
		c0-4.722,3.829-8.551,8.551-8.551h25.653c4.722,0,8.551,3.829,8.551,8.551V256C179.04,260.722,175.211,264.551,170.489,264.551z"/>
	<path style="fill:#DCB991;" d="M170.489,392.818h-17.102c-4.722,0-8.551-3.829-8.551-8.551v-59.858
		c0-4.722,3.829-8.551,8.551-8.551h17.102c4.722,0,8.551,3.829,8.551,8.551v59.858C179.04,388.99,175.211,392.818,170.489,392.818z"
		/>
</g>
<g>
	<path style="fill:#EBC9A0;" d="M179.04,196.142h-42.756v-25.653c0-4.722,3.829-8.551,8.551-8.551h25.653
		c4.722,0,8.551,3.829,8.551,8.551V196.142z"/>
	<path style="fill:#EBC9A0;" d="M170.489,315.858h-17.102c-4.722,0-8.551,3.829-8.551,8.551v25.653h34.205v-25.653
		C179.04,319.687,175.211,315.858,170.489,315.858z"/>
</g>
<path style="fill:#DCB991;" d="M367.165,264.551h-25.653c-4.722,0-8.551-3.829-8.551-8.551v-85.511c0-4.722,3.829-8.551,8.551-8.551
	h25.653c4.722,0,8.551,3.829,8.551,8.551V256C375.716,260.722,371.887,264.551,367.165,264.551z"/>
<path style="fill:#EBC9A0;" d="M375.716,196.142H332.96v-25.653c0-4.722,3.829-8.551,8.551-8.551h25.653
	c4.722,0,8.551,3.829,8.551,8.551V196.142z"/>
<path style="fill:#DCB991;" d="M358.614,392.818h-17.102c-4.722,0-8.551-3.829-8.551-8.551v-59.858c0-4.722,3.829-8.551,8.551-8.551
	h17.102c4.722,0,8.551,3.829,8.551,8.551v59.858C367.165,388.99,363.336,392.818,358.614,392.818z"/>
<g>
	<path style="fill:#EBC9A0;" d="M358.614,315.858h-17.102c-4.722,0-8.551,3.829-8.551,8.551v25.653h34.205v-25.653
		C367.165,319.687,363.336,315.858,358.614,315.858z"/>
	<path style="fill:#EBC9A0;" d="M230.347,503.983c4.722,0,8.551-3.829,8.551-8.551v-25.653h-85.986l0.32,25.812
		c0.087,4.659,3.889,8.393,8.55,8.393H230.347z"/>
	<path style="fill:#EBC9A0;" d="M273.102,469.779v25.653c0,4.722,3.829,8.551,8.551,8.551h68.566c4.66,0,8.462-3.733,8.55-8.393
		l0.32-25.812H273.102z"/>
	<path style="fill:#EBC9A0;" d="M145.158,59.64l0.786,42.439h7.443c23.613,0,42.756-19.142,42.756-42.756V42.221h-33.885
		C152.688,42.221,144.98,50.073,145.158,59.64z"/>
	<path style="fill:#EBC9A0;" d="M366.842,59.64l-0.786,42.439h-7.443c-23.613,0-42.756-19.142-42.756-42.756V42.221h33.885
		C359.312,42.221,367.02,50.073,366.842,59.64z"/>
</g>
<path d="M373.094,155.037l1.764-95.248c0.125-6.795-2.427-13.209-7.189-18.06c-0.338-0.344-0.685-0.673-1.039-0.996V16.568
	C366.63,7.432,359.198,0,350.063,0H161.937c-9.136,0-16.568,7.432-16.568,16.568v24.163c-0.354,0.322-0.701,0.652-1.039,0.996
	c-4.762,4.851-7.314,11.265-7.189,18.06l1.764,95.248c-6.21,2.393-10.638,8.409-10.638,15.453V256c0,7.84,5.48,14.411,12.806,16.121
	l0.749,40.445c-3.083,3.01-5.005,7.204-5.005,11.843v59.858c0,5.381,2.59,10.157,6.577,13.185l1.82,98.288
	c0.167,8.966,7.598,16.26,16.566,16.26h68.565c9.136,0,16.568-7.432,16.568-16.568V161.937c0-5.01,4.076-9.086,9.086-9.086
	c5.01,0,9.086,4.076,9.086,9.086v333.495c0,9.136,7.432,16.568,16.568,16.568h68.565c8.968,0,16.399-7.294,16.566-16.261
	l1.82-98.287c3.986-3.028,6.577-7.804,6.577-13.185v-59.858c0-4.639-1.922-8.833-5.005-11.843l0.749-40.445
	c7.326-1.71,12.806-8.281,12.806-16.121v-85.511C383.733,163.445,379.305,157.429,373.094,155.037z M367.699,256
	c0,0.294-0.241,0.534-0.534,0.534h-25.653c-0.294,0-0.534-0.241-0.534-0.534v-51.841h26.722V256z M340.977,188.125v-17.637
	c0-0.294,0.241-0.534,0.534-0.534h25.653c0.294,0,0.534,0.241,0.534,0.534v17.637H340.977z M323.875,50.238h25.868
	c2.458,0,4.761,0.966,6.483,2.721c1.722,1.755,2.647,4.075,2.601,6.532l-0.64,34.561c-18.958-0.231-34.311-15.716-34.311-34.728
	V50.238z M350.597,16.568v17.658c-0.284-0.01-0.568-0.021-0.854-0.021h-85.726V16.033h86.046
	C350.357,16.033,350.597,16.274,350.597,16.568z M161.403,16.568c0-0.294,0.241-0.534,0.534-0.534h86.046v18.171h-85.726
	c-0.285,0-0.57,0.012-0.854,0.021L161.403,16.568L161.403,16.568z M144.835,256.534c-0.294,0-0.534-0.241-0.534-0.534v-51.841
	h26.722V256c0,0.294-0.241,0.534-0.534,0.534H144.835z M171.023,188.125h-26.722v-17.637c0-0.294,0.241-0.534,0.534-0.534h25.653
	c0.294,0,0.534,0.241,0.534,0.534V188.125z M153.174,59.491c-0.046-2.458,0.878-4.778,2.601-6.532
	c1.723-1.754,4.024-2.721,6.483-2.721h25.868v9.086c0,19.012-15.354,34.497-34.311,34.728L153.174,59.491z M153.386,384.802
	c-0.294,0-0.534-0.241-0.534-0.534v-26.188h18.171v26.188c0,0.294-0.241,0.534-0.534,0.534H153.386z M171.023,342.046h-18.171
	v-17.637c0-0.294,0.241-0.534,0.534-0.534h17.102c0.294,0,0.534,0.241,0.534,0.534V342.046z M230.347,495.967h-68.565
	c-0.29,0-0.529-0.236-0.534-0.524l-0.327-17.647h69.961v17.637C230.881,495.726,230.641,495.967,230.347,495.967z M230.881,161.937
	v299.825h-70.258l-1.128-60.927h10.994c9.136,0,16.568-7.432,16.568-16.568v-59.858c0-9.136-7.432-16.568-16.568-16.568h-12.716
	l-0.654-35.273h13.37c9.136,0,16.568-7.432,16.568-16.568v-85.511c0-9.136-7.432-16.568-16.568-16.568h-15.566l-0.812-43.843
	c27.662-0.39,50.049-23.002,50.049-50.754v-9.086h43.825v87.899C238.053,141.493,230.881,150.89,230.881,161.937z M264.017,138.137
	V50.238h43.825v9.086c0,27.753,22.387,50.364,50.049,50.754l-0.812,43.843h-15.566c-9.136,0-16.568,7.432-16.568,16.568V256
	c0,9.136,7.432,16.568,16.568,16.568h13.37l-0.654,35.273h-12.716c-9.136,0-16.568,7.432-16.568,16.568v59.858
	c0,9.136,7.432,16.568,16.568,16.568h10.994l-1.128,60.927h-70.258V161.937C281.119,150.89,273.947,141.493,264.017,138.137z
	 M359.148,342.046h-18.171v-17.637c0-0.294,0.241-0.534,0.534-0.534h17.102c0.294,0,0.534,0.241,0.534,0.534V342.046z
	 M340.977,358.079h18.171v26.188c0,0.294-0.241,0.534-0.534,0.534h-17.102c-0.294,0-0.534-0.241-0.534-0.534V358.079z
	 M350.219,495.967h-68.565c-0.294,0-0.534-0.241-0.534-0.534v-17.637h69.961l-0.327,17.646
	C350.749,495.73,350.508,495.967,350.219,495.967z"/>
<g>
</g>
<g>
</g>
<g>
</g>
<g>
</g>
<g>
</g>
<g>
</g>
<g>
</g>
<g>
</g>
<g>
</g>
<g>
</g>
<g>
</g>
<g>
</g>
<g>
</g>
<g>
</g>
<g>
</g>
</svg>
