<?xml version="1.0" encoding="iso-8859-1"?>
<!-- Generator: Adobe Illustrator 19.0.0, SVG Export Plug-In . SVG Version: 6.00 Build 0)  -->
<svg version="1.1" id="Layer_1" xmlns="http://www.w3.org/2000/svg" xmlns:xlink="http://www.w3.org/1999/xlink" x="0px" y="0px"
	 viewBox="0 0 512 512" style="enable-background:new 0 0 512 512;" xml:space="preserve">
<rect x="10.449" y="332.527" style="fill:#662C04;" width="185.657" height="50.833"/>
<path style="fill:#074761;" d="M422.658,268.706c-143.305-34.431-194.817-104.649-224.502-140.068
	c-25.528,21.823-58.66,35.007-94.877,35.007c-35.254,0-67.59-12.489-92.831-33.281v202.165h185.66c0,0,81.498,50.833,152.962,50.833
	c32.96,0,78.53,0,120.098,0C517.148,383.362,519.636,292.006,422.658,268.706z"/>
<g>
	<path style="fill:#662C04;" d="M10.449,214.28v118.249h118.248C128.697,267.221,75.756,214.28,10.449,214.28z"/>
	<path style="fill:#662C04;" d="M422.658,268.706c-15.969-3.837-30.793-8.119-44.578-12.748
		c-29.204,34.443-47.925,78.046-51.24,125.899c7.45,0.961,14.893,1.504,22.23,1.504c32.96,0,78.53,0,120.098,0
		C517.148,383.362,519.636,292.006,422.658,268.706z"/>
</g>
<path d="M152.035,368.395h4.678c5.771,0,10.449-4.678,10.449-10.449c0-5.771-4.678-10.449-10.449-10.449h-4.678
	c-5.771,0-10.449,4.678-10.449,10.449C141.587,363.717,146.265,368.395,152.035,368.395z"/>
<path d="M171.244,211.548c2.675,0,5.35-1.021,7.39-3.062l3.497-3.498c4.079-4.081,4.079-10.697-0.003-14.777
	c-4.081-4.08-10.697-4.078-14.777,0.003l-3.497,3.498c-4.079,4.081-4.079,10.697,0.002,14.777
	C165.897,210.529,168.57,211.548,171.244,211.548z"/>
<path d="M200.021,240.192c2.674,0,5.35-1.021,7.389-3.062l3.498-3.499c4.079-4.081,4.079-10.697-0.003-14.777
	c-4.081-4.079-10.697-4.079-14.777,0.003l-3.498,3.498c-4.079,4.081-4.079,10.697,0.002,14.777
	C194.675,239.173,197.347,240.192,200.021,240.192z"/>
<path d="M233.993,268.207c2.674,0,5.349-1.02,7.388-3.06l3.497-3.497c4.08-4.08,4.08-10.697,0-14.778
	c-4.08-4.08-10.697-4.08-14.778,0l-3.497,3.497c-4.08,4.08-4.08,10.697,0,14.778C228.645,267.188,231.319,268.207,233.993,268.207z"
	/>
<path d="M493.854,298.615c-15.463-19.121-39.238-32.976-68.755-40.068c-15.591-3.746-30.042-7.915-43.477-12.409
	c-0.202-0.072-0.404-0.143-0.609-0.203c-59.01-19.824-98.13-45.981-125.806-70.778c-0.096-0.104-0.184-0.214-0.284-0.314
	c-0.357-0.357-0.74-0.672-1.133-0.967c-18.481-16.763-31.791-32.84-42.544-45.835c-1.766-2.134-3.455-4.176-5.08-6.115
	c-1.791-2.138-4.362-3.47-7.142-3.701c-2.78-0.231-5.536,0.658-7.656,2.471c-24.516,20.959-55.8,32.5-88.087,32.5
	c-31.391,0-62-10.972-86.187-30.897c-3.121-2.571-7.447-3.11-11.102-1.384C2.333,122.639,0,126.32,0,130.364v202.165v50.833
	c0,5.771,4.678,10.449,10.449,10.449h185.66c5.771,0,10.449-4.678,10.449-10.449V350.55c27.852,15.058,87.377,43.261,142.513,43.261
	h120.097c22.527,0,39.572-16.141,42.419-40.162C513.76,335.296,507.297,315.237,493.854,298.615z M103.28,174.094
	c33.715,0,66.484-10.908,93.377-30.903c2.53,3.054,5.213,6.28,8.075,9.642l-12.099,12.098c-4.08,4.08-4.081,10.697-0.001,14.777
	c2.041,2.041,4.715,3.061,7.388,3.061c2.674,0,5.349-1.021,7.388-3.061l11.227-11.226c4.246,4.551,8.84,9.247,13.829,14.038
	l-11.055,11.055c-4.08,4.08-4.08,10.697,0,14.778c2.041,2.041,4.715,3.061,7.388,3.061s5.349-1.02,7.388-3.061l11.817-11.817
	c5.603,4.744,11.629,9.528,18.13,14.305l-10.752,10.753c-4.08,4.08-4.08,10.697,0,14.777c2.041,2.041,4.715,3.061,7.388,3.061
	s5.349-1.021,7.388-3.061l13.494-13.495c23.064,14.804,48.876,27.49,77.186,38.006c-23.831,32.046-38.649,69.265-43.351,108.937
	c-58.403-10.732-115.183-45.738-115.851-46.154c-1.638-1.023-3.599-1.583-5.53-1.583h-57.389
	c-5.057-62.649-55.174-112.765-117.821-117.822v-53.594C45.508,165.878,74.102,174.094,103.28,174.094z M20.898,225.231
	c51.122,4.937,91.91,45.727,96.848,96.849H20.898V225.231z M185.66,372.913H20.898v-4.518h97.333
	c5.771,0,10.449-4.678,10.449-10.449c0-5.771-4.678-10.449-10.449-10.449H20.898v-4.519H185.66V372.913z M490.833,351.19
	c-0.604,5.096-3.95,21.723-21.665,21.723H349.07c-3.591,0-7.215-0.145-10.857-0.406c4.502-38.308,19.388-74.107,43.451-104.432
	c12.427,3.984,25.266,7.598,38.553,10.791c25,6.007,44.845,17.38,57.387,32.889C487.527,324.025,492.349,338.398,490.833,351.19z"/>
<g>
</g>
<g>
</g>
<g>
</g>
<g>
</g>
<g>
</g>
<g>
</g>
<g>
</g>
<g>
</g>
<g>
</g>
<g>
</g>
<g>
</g>
<g>
</g>
<g>
</g>
<g>
</g>
<g>
</g>
</svg>
