<?xml version="1.0" encoding="iso-8859-1"?>
<!-- Generator: Adobe Illustrator 19.0.0, SVG Export Plug-In . SVG Version: 6.00 Build 0)  -->
<svg version="1.1" id="Layer_1" xmlns="http://www.w3.org/2000/svg" xmlns:xlink="http://www.w3.org/1999/xlink" x="0px" y="0px"
	 viewBox="0 0 512 512" style="enable-background:new 0 0 512 512;" xml:space="preserve">
<path style="fill:#D8962B;" d="M512,189.217l-100.174,22.261v267.13c0,12.295-9.966,22.261-22.261,22.261H256H122.435
	c-12.295,0-22.261-9.966-22.261-22.261v-267.13L0,189.217L47.799,57.065c11.703-21.455,34.189-34.804,58.628-34.804H256h149.573
	c24.439,0,46.926,13.349,58.628,34.804L512,189.217z"/>
<path style="fill:#EDB311;" d="M369.174,196.401c-3.409,5.114-2.028,12.025,3.086,15.435l33.391,22.261
	c1.898,1.266,4.041,1.871,6.164,1.871c0.003,0,0.007-0.001,0.01-0.001v242.642c0,12.295-9.966,22.261-22.261,22.261H256H122.435
	c-12.295,0-22.261-9.966-22.261-22.261V235.967c0.003,0,0.007,0.001,0.01,0.001c2.121,0,4.266-0.605,6.164-1.871l33.391-22.261
	c5.114-3.409,6.497-10.32,3.086-15.435c-3.409-5.114-10.32-6.498-15.435-3.086l-27.238,18.159L0,189.217L47.799,57.065
	c11.703-21.455,34.189-34.804,58.628-34.804h60.53l0,0c0,36.883,29.9,66.783,66.783,66.783h44.522
	c36.883,0,66.783-29.9,66.783-66.783l0,0h60.53c24.439,0,46.926,13.349,58.628,34.804L512,189.217l-100.153,22.256l-27.238-18.159
	C379.496,189.905,372.583,191.287,369.174,196.401z"/>
<path style="fill:#C92B00;" d="M322.783,222.609h-18.774c-1.243-5.365-3.36-10.397-6.201-14.936l13.285-13.285
	c4.346-4.346,4.346-11.394,0-15.742c-4.346-4.346-11.394-4.346-15.742,0l-13.285,13.285c-4.539-2.84-9.571-4.957-14.936-6.201
	v-18.774c0-6.147-4.983-11.13-11.13-11.13c-6.147,0-11.13,4.983-11.13,11.13v18.774c-5.365,1.244-10.397,3.361-14.936,6.201
	l-13.285-13.285c-4.346-4.346-11.394-4.346-15.742,0c-4.346,4.346-4.346,11.394,0,15.742l13.285,13.285
	c-2.84,4.54-4.957,9.571-6.201,14.936h-18.774c-6.147,0-11.13,4.983-11.13,11.13s4.983,11.13,11.13,11.13h18.774
	c1.243,5.365,3.36,10.397,6.201,14.936l-13.285,13.285c-4.346,4.346-4.346,11.394,0,15.742c2.174,2.174,5.022,3.26,7.87,3.26
	c2.848,0,5.698-1.086,7.87-3.26l13.285-13.285c4.539,2.84,9.571,4.957,14.936,6.201v18.774c0,6.147,4.983,11.13,11.13,11.13
	c6.147,0,11.13-4.983,11.13-11.13v-18.774c5.365-1.243,10.397-3.36,14.936-6.201l13.285,13.285c2.174,2.174,5.022,3.26,7.87,3.26
	s5.698-1.086,7.87-3.26c4.346-4.346,4.346-11.394,0-15.742l-13.285-13.285c2.84-4.539,4.957-9.571,6.201-14.936h18.776
	c6.147,0,11.13-4.983,11.13-11.13C333.913,227.592,328.93,222.609,322.783,222.609z M256,260.77
	c-14.905,0-27.031-12.127-27.031-27.031s12.127-27.031,27.031-27.031c14.905,0,27.031,12.127,27.031,27.031
	S270.905,260.77,256,260.77z M233.739,100.174h44.522c42.961,0,77.913-34.952,77.913-77.913c0-6.147-4.983-11.13-11.13-11.13
	H166.957c-6.147,0-11.13,4.983-11.13,11.13C155.826,65.222,190.778,100.174,233.739,100.174z M332.796,33.391
	c-5.171,25.371-27.659,44.522-54.535,44.522h-44.522c-26.876,0-49.362-19.151-54.535-44.522H332.796z"/>
<g>
</g>
<g>
</g>
<g>
</g>
<g>
</g>
<g>
</g>
<g>
</g>
<g>
</g>
<g>
</g>
<g>
</g>
<g>
</g>
<g>
</g>
<g>
</g>
<g>
</g>
<g>
</g>
<g>
</g>
</svg>
